{"glyphs":{"0":{"ha":694,"x_min":50,"x_max":643,"o":"m 317 628 q 404 625 361 632 q 556 556 499 611 q 600 492 585 525 q 639 313 635 424 q 556 42 643 129 q 400 -28 501 -12 q 299 -28 356 -33 q 293 -28 296 -28 q 138 42 192 -12 q 54 313 50 129 q 67 417 56 375 q 113 525 81 478 q 169 582 133 557 q 317 628 231 622 m 374 563 q 232 524 279 574 q 206 439 210 501 q 204 429 204 435 q 203 217 200 379 q 204 183 203 192 q 219 96 208 115 q 308 38 243 50 q 385 38 339 32 q 474 96 450 50 q 489 183 485 115 q 490 397 493 239 q 489 429 490 421 q 461 524 483 500 q 374 563 432 556 z "},"1":{"ha":694,"x_min":113,"x_max":600,"o":"m 389 625 q 406 629 397 629 q 419 625 415 629 l 425 621 l 425 356 q 428 89 425 90 q 531 78 435 79 q 596 68 590 78 q 597 18 600 58 q 596 10 597 11 q 571 1 592 1 q 533 1 561 1 q 215 3 414 7 q 183 1 196 1 q 122 8 128 0 q 119 60 115 17 q 122 69 121 68 q 149 78 125 78 q 188 78 158 78 q 290 89 281 79 q 293 299 293 90 l 293 506 l 289 506 q 160 492 221 493 l 122 492 l 118 496 l 113 501 l 113 531 l 113 560 l 117 564 l 121 569 l 157 569 q 389 625 311 574 z "},"2":{"ha":694,"x_min":57,"x_max":626,"o":"m 288 628 q 388 626 326 631 q 611 485 565 603 q 622 444 619 465 q 619 383 626 411 q 593 331 611 354 q 447 242 560 290 q 308 169 401 222 l 239 129 l 374 129 q 519 132 518 132 l 531 133 l 535 140 q 550 190 543 154 q 563 218 556 215 q 589 219 568 219 l 614 219 l 618 215 q 624 207 619 214 l 604 107 q 583 10 583 11 q 578 3 583 6 l 575 0 l 324 0 q 64 8 69 0 q 61 63 57 17 q 63 71 61 69 q 178 150 64 75 l 324 244 q 421 318 393 290 q 467 418 467 364 q 446 483 467 454 q 268 550 396 550 q 229 547 239 550 q 194 533 204 540 l 186 529 l 194 521 q 213 444 229 490 q 208 435 211 440 q 179 407 201 418 q 114 407 147 390 q 78 453 86 421 q 81 503 72 472 q 103 547 89 532 q 288 628 153 614 z "},"3":{"ha":694,"x_min":58,"x_max":638,"o":"m 303 628 q 383 626 332 631 q 547 547 483 611 q 597 419 599 492 q 542 282 593 344 q 443 207 503 235 q 428 199 429 199 q 432 196 428 197 q 508 165 463 192 q 632 6 611 107 q 632 -69 638 -26 q 554 -212 615 -156 q 481 -265 522 -244 q 363 -299 426 -293 q 281 -296 322 -304 q 124 -231 188 -283 q 58 -100 63 -178 q 68 -49 58 -69 q 126 -4 86 -15 q 172 -4 144 1 q 238 -72 226 -19 q 239 -92 239 -82 q 192 -172 239 -150 q 181 -179 181 -176 q 215 -201 185 -187 q 329 -225 263 -225 q 365 -222 354 -225 q 460 -103 446 -196 q 460 44 472 -29 q 383 154 444 125 q 318 167 361 165 q 294 167 311 167 l 238 168 l 233 171 q 231 199 231 175 q 238 231 231 228 l 279 235 q 340 243 326 238 q 433 369 413 268 q 440 433 440 400 q 426 508 440 481 q 411 531 422 519 q 310 558 374 567 q 211 518 251 553 q 206 508 197 508 q 242 488 218 508 q 261 401 276 453 q 254 385 258 393 q 181 343 235 343 q 139 353 158 343 q 106 386 115 365 q 96 436 96 406 q 128 529 100 489 q 183 585 149 561 q 303 628 235 619 z "},"4":{"ha":694,"x_min":39,"x_max":654,"o":"m 449 642 q 488 644 453 644 l 522 644 l 526 640 l 531 636 l 531 357 l 531 78 l 588 78 l 644 78 l 649 74 l 654 69 l 654 39 l 654 8 l 649 4 l 644 0 l 588 0 l 531 0 l 531 -90 q 532 -182 531 -181 q 603 -192 535 -190 l 646 -192 l 650 -197 l 654 -201 l 654 -231 l 654 -260 l 649 -265 l 644 -269 l 629 -269 l 538 -267 q 382 -267 461 -265 l 286 -269 l 269 -269 l 265 -265 l 261 -261 l 261 -231 l 261 -200 l 265 -196 l 269 -192 l 299 -192 q 382 -187 365 -192 q 392 -182 390 -185 q 394 -89 394 -179 l 394 0 l 222 0 q 42 8 47 0 q 39 44 39 11 l 39 78 l 49 92 q 251 374 40 79 q 449 642 444 639 m 403 78 l 403 272 l 403 467 l 263 272 l 122 79 l 263 78 l 403 78 z "},"5":{"ha":694,"x_min":69,"x_max":626,"o":"m 129 626 q 151 624 135 631 q 439 594 288 568 q 542 625 494 604 q 565 625 558 632 l 569 621 l 569 596 l 569 572 l 556 558 q 344 453 467 472 q 221 451 286 442 l 201 454 q 200 346 200 454 l 200 239 l 207 244 q 271 282 233 269 q 432 285 344 313 q 524 232 482 268 q 592 140 564 196 q 621 49 610 101 q 621 -43 626 6 q 490 -246 599 -174 q 413 -283 456 -271 q 235 -287 318 -315 q 172 -257 199 -275 q 69 -74 75 -190 q 71 -46 69 -54 q 135 17 82 7 q 153 18 143 18 q 228 -31 208 18 q 232 -43 231 -36 q 232 -86 238 -64 q 175 -144 221 -133 q 165 -149 165 -147 q 193 -182 165 -156 q 303 -226 239 -222 q 444 -160 397 -232 q 464 -114 458 -139 q 474 6 474 -75 q 456 161 474 119 q 410 217 442 197 q 346 232 378 233 q 196 140 246 225 q 186 126 188 128 q 139 125 178 122 q 131 126 132 125 q 124 151 125 131 q 122 378 122 178 q 124 621 122 618 q 129 626 126 626 z "},"6":{"ha":694,"x_min":54,"x_max":638,"o":"m 393 924 q 465 922 422 926 q 515 904 492 918 q 600 767 596 865 q 590 718 600 736 q 543 681 576 690 q 521 679 539 679 q 500 681 503 679 q 451 717 467 689 q 451 797 431 757 q 494 832 468 825 q 489 839 497 833 q 431 856 464 854 q 278 782 339 858 q 250 739 261 763 q 215 561 219 676 l 213 529 l 213 518 l 221 529 q 265 574 239 553 q 340 607 296 596 q 422 606 378 613 q 535 544 482 594 q 632 351 617 461 q 633 250 638 311 q 632 240 632 244 q 532 44 618 128 q 339 -31 451 -35 q 185 33 253 -26 q 121 121 147 69 q 61 357 71 214 q 64 529 54 453 q 218 842 90 729 q 258 872 238 858 q 393 924 319 915 m 378 543 q 281 515 318 551 q 215 343 226 465 q 221 172 210 274 q 243 103 225 131 q 358 43 286 39 q 456 96 425 47 q 472 138 467 113 q 481 271 479 171 q 465 481 482 449 q 422 528 450 511 q 378 543 401 540 z "},"7":{"ha":694,"x_min":76,"x_max":674,"o":"m 129 640 q 158 643 133 643 l 182 643 l 188 639 q 192 628 192 633 q 196 617 192 622 q 263 601 207 606 q 474 599 268 601 l 664 599 l 668 594 l 674 590 l 674 560 l 674 531 l 582 410 q 482 278 494 299 q 399 28 418 183 q 388 -158 389 -37 q 385 -240 388 -235 q 329 -297 375 -286 q 269 -290 299 -306 q 232 -242 239 -275 q 235 -133 225 -215 q 382 256 256 63 q 479 388 399 282 l 535 461 l 243 461 q 174 456 178 460 q 150 361 161 444 q 138 329 144 332 q 111 328 132 328 l 86 328 l 82 332 q 76 340 81 333 l 124 633 q 129 640 125 636 z "},"8":{"ha":694,"x_min":49,"x_max":643,"o":"m 324 924 q 353 925 325 925 q 476 894 415 924 q 585 775 558 851 q 588 768 586 771 q 596 708 596 742 q 586 646 597 679 q 465 508 561 569 l 456 501 l 486 482 q 550 436 519 461 q 635 222 643 346 q 629 188 633 204 q 575 76 617 126 q 532 33 561 57 q 392 -28 476 -12 q 311 -29 361 -33 q 304 -28 307 -28 q 199 6 247 -19 q 64 169 89 61 q 75 306 49 238 q 133 393 94 353 q 221 461 171 433 l 232 468 l 214 479 q 161 521 182 500 q 96 675 100 586 q 108 758 94 715 q 140 821 117 788 q 196 876 161 853 q 258 910 228 900 q 324 924 290 921 m 371 854 q 272 842 321 861 q 197 769 215 817 q 213 669 178 715 q 301 601 229 647 q 317 592 308 597 l 394 542 l 400 544 q 446 581 418 556 q 497 667 485 622 q 475 792 515 739 q 371 854 436 843 m 372 376 q 294 426 297 426 q 254 399 286 426 q 163 242 174 335 q 189 126 157 178 q 347 43 244 43 q 357 43 351 43 q 507 119 458 49 q 532 206 535 160 q 488 297 528 257 q 379 372 471 314 l 372 376 z "},"9":{"ha":694,"x_min":56,"x_max":644,"o":"m 319 628 q 383 628 356 631 q 550 524 486 614 q 561 507 556 515 q 626 304 611 425 q 629 85 644 185 q 493 -211 606 -99 q 444 -250 469 -233 q 375 -285 413 -272 q 326 -297 354 -292 q 251 -299 300 -303 q 243 -297 246 -297 q 111 -211 143 -278 q 103 -93 78 -144 q 151 -57 118 -65 q 172 -54 157 -54 q 194 -57 186 -54 q 242 -93 226 -67 q 242 -174 263 -132 q 211 -203 229 -194 q 204 -207 206 -206 q 250 -224 204 -214 q 321 -224 281 -229 q 408 -174 369 -214 q 476 11 464 -118 q 479 63 478 35 q 481 96 479 81 l 472 86 q 429 43 449 57 q 369 13 408 26 q 307 6 342 6 q 193 40 244 7 q 83 179 121 90 q 79 189 81 183 q 61 258 71 208 q 60 356 56 296 q 61 365 61 361 q 157 550 75 469 q 229 601 192 582 q 319 628 271 624 m 382 557 q 356 560 375 557 q 240 508 278 561 q 213 364 214 472 q 213 289 213 333 q 219 165 214 201 q 233 124 222 139 q 285 79 253 92 q 358 72 319 67 q 472 225 446 88 q 478 260 476 242 q 479 333 479 278 q 467 472 478 440 q 394 553 449 528 q 382 557 389 556 z "}," ":{"ha":91019,"x_min":0,"x_max":0,"o":""},"!":{"ha":864,"x_min":1,"x_max":843,"o":"m 747 613 q 776 614 763 615 q 838 492 843 594 q 838 485 838 488 q 813 349 835 439 q 747 167 785 240 q 638 26 701 74 q 572 -8 611 4 q 443 1 503 -28 q 372 74 399 22 l 368 83 l 350 65 q 272 7 311 26 q 135 -10 201 -28 q 83 17 108 -3 q 28 124 40 53 q 69 431 1 257 q 143 571 100 510 q 175 603 161 596 q 196 607 183 607 q 214 604 208 607 q 233 572 233 594 q 213 526 235 556 q 101 292 114 393 q 99 269 100 281 q 113 183 96 221 q 140 143 119 161 q 178 122 157 128 q 238 122 201 117 q 329 178 286 135 l 344 192 l 344 215 q 368 360 344 301 q 435 419 390 413 q 463 417 450 422 q 492 354 493 404 q 446 213 486 300 q 443 207 444 210 q 440 181 435 190 q 446 172 442 178 q 553 119 483 115 q 650 168 603 124 q 707 250 683 204 q 743 357 735 306 q 735 425 747 393 q 701 472 726 447 q 672 521 675 499 q 681 560 672 542 q 747 613 700 600 z "},"\"":{"ha":647,"x_min":19,"x_max":596,"o":"m 390 628 q 415 629 393 629 q 557 586 493 629 q 593 544 592 564 q 563 490 596 511 q 542 482 553 483 q 500 496 521 478 q 433 528 468 519 q 340 529 408 533 q 329 528 333 528 q 182 457 213 513 q 175 436 176 447 q 201 376 171 399 l 208 369 l 221 375 q 288 392 250 386 q 382 389 340 397 q 425 361 417 383 q 428 342 428 354 q 422 321 426 328 q 392 292 413 303 q 339 279 371 282 q 214 290 268 272 l 200 296 l 192 290 q 113 186 128 246 q 111 140 107 158 q 183 76 121 93 q 276 69 211 69 q 371 76 340 69 q 468 138 442 89 q 488 157 478 153 q 521 140 511 163 q 522 121 524 131 q 497 72 517 101 q 443 22 478 46 q 340 -22 396 -10 q 115 10 207 -51 q 68 56 88 28 q 44 107 53 78 q 96 288 19 200 q 131 322 111 306 l 142 332 l 136 339 q 108 388 118 357 q 106 419 106 397 q 108 453 106 442 q 157 531 121 494 q 239 588 186 561 q 390 628 306 622 z "},"#":{"ha":821,"x_min":22,"x_max":783,"o":"m 561 978 q 618 975 589 981 q 660 956 636 971 q 749 754 733 906 q 751 664 753 711 q 735 535 750 607 q 732 508 731 510 l 756 503 q 783 490 781 499 l 772 442 l 771 439 q 738 439 765 433 q 714 443 715 443 l 708 426 q 568 140 661 264 q 367 -12 467 3 q 244 -4 313 -22 q 135 114 151 22 q 138 203 129 150 l 171 343 q 204 478 203 465 q 178 549 214 546 q 169 549 174 549 q 96 413 128 540 q 90 394 90 396 q 57 386 75 386 l 31 386 l 26 390 q 22 399 22 394 q 49 486 22 419 q 193 614 101 618 q 318 540 282 610 q 329 483 329 517 l 329 461 l 299 336 q 258 136 257 169 q 260 126 260 132 q 283 72 264 90 q 347 51 306 51 q 376 54 367 51 q 471 151 421 71 q 575 439 522 240 l 585 479 l 564 488 q 479 529 511 511 q 371 654 397 581 q 386 835 343 739 q 524 968 433 935 q 561 978 543 975 m 596 910 q 576 914 592 911 q 558 913 561 914 q 461 838 501 901 q 435 689 417 763 q 438 681 436 685 q 589 550 465 599 l 601 544 l 607 572 q 631 692 621 625 q 622 882 653 819 q 596 910 614 900 z "},"$":{"ha":1150,"x_min":18,"x_max":1154,"o":"m 226 596 q 676 599 235 599 l 1115 599 l 1121 594 q 1147 563 1143 585 q 1126 504 1154 532 q 1064 483 1106 483 q 1042 482 1042 483 q 1043 469 1042 479 q 1043 361 1053 418 q 992 204 1032 289 q 897 65 951 121 q 818 8 858 29 q 731 -15 776 -14 q 579 90 615 -19 q 567 149 569 117 q 565 161 567 156 q 561 158 565 163 q 554 147 558 153 q 454 42 507 81 q 338 -11 400 1 q 296 -14 324 -14 q 233 -1 260 -14 q 206 19 215 8 q 160 161 160 68 q 167 236 160 197 q 261 463 186 353 l 275 483 l 247 483 q 211 482 215 483 q 92 408 135 471 q 81 396 83 397 q 54 394 78 394 q 19 404 25 394 q 21 415 18 410 q 38 442 24 419 q 226 596 129 579 m 974 469 l 972 483 l 661 483 l 351 483 l 342 471 q 235 201 232 321 q 249 142 236 167 q 290 104 264 114 q 318 101 297 101 q 375 110 349 101 q 539 261 468 142 q 571 328 557 293 q 593 396 592 392 q 599 406 597 404 q 628 408 601 408 l 654 408 l 658 404 q 663 397 663 400 q 658 375 663 392 q 644 299 656 361 q 644 204 639 250 q 689 115 653 143 q 794 110 731 85 q 935 250 879 139 q 968 336 957 290 q 974 469 986 406 z "},"%":{"ha":718,"x_min":75,"x_max":714,"o":"m 482 613 q 546 610 500 618 q 646 558 604 597 q 685 507 671 536 q 714 383 714 450 q 653 176 714 278 q 553 63 615 113 q 343 -15 450 -19 q 328 -14 336 -15 q 243 17 282 -10 q 189 74 210 39 l 182 83 l 176 56 q 163 -74 158 -37 q 208 -118 167 -107 q 333 -128 235 -126 q 489 -139 454 -129 q 538 -224 546 -156 q 535 -242 536 -232 q 521 -268 529 -267 q 494 -269 517 -269 l 469 -269 l 465 -265 q 461 -250 461 -261 q 456 -235 464 -236 q 426 -235 451 -233 q 363 -237 388 -235 q 185 -232 254 -251 q 94 -158 113 -214 q 110 75 75 -97 q 172 335 144 251 q 250 476 196 406 q 308 535 276 508 q 468 611 388 600 q 482 613 474 613 m 514 546 q 449 540 482 553 q 318 396 361 507 q 271 206 285 301 q 297 76 258 115 q 406 58 339 35 q 508 154 472 83 q 561 318 533 200 q 582 439 581 396 q 565 513 583 485 q 514 546 547 539 z "},"&":{"ha":504,"x_min":43,"x_max":557,"o":"m 382 613 q 465 610 429 618 q 544 574 518 599 q 557 544 557 561 q 553 524 557 532 q 513 499 538 496 q 507 500 510 499 q 492 511 501 503 q 410 549 446 549 q 283 518 344 549 q 203 461 240 499 q 150 340 150 406 q 168 275 150 303 q 208 236 189 250 q 315 176 218 232 q 421 117 414 122 q 457 75 443 101 q 471 24 469 53 q 454 -54 472 -12 q 340 -147 417 -129 q 332 -149 336 -147 q 281 -147 311 -153 q 214 -118 224 -133 q 224 -81 203 -100 q 233 -75 228 -78 q 263 -72 247 -67 q 300 -83 283 -82 q 338 -79 328 -87 q 358 -37 358 -67 q 336 4 358 -14 q 238 61 331 8 q 133 121 140 115 q 81 171 100 142 q 46 250 54 208 q 43 292 43 263 q 46 335 43 319 q 71 406 53 371 q 140 500 94 454 q 382 613 239 594 z "},"'":{"ha":908,"x_min":69,"x_max":863,"o":"m 667 613 q 767 597 722 619 q 858 429 854 554 q 794 210 863 319 q 574 18 715 79 q 500 -6 538 3 q 418 -14 464 -14 q 386 -17 386 -14 l 365 -131 q 343 -246 344 -242 q 336 -262 340 -254 q 269 -303 315 -303 q 242 -297 254 -303 q 215 -244 211 -285 q 254 -119 221 -219 q 292 -1 289 -4 q 279 6 292 0 q 194 44 242 15 q 106 133 139 76 q 69 264 69 192 q 76 331 69 292 q 197 589 115 503 l 207 599 l 232 599 q 267 590 264 599 q 257 568 271 583 q 153 353 190 489 q 142 279 142 313 q 186 181 146 221 q 274 128 224 144 q 322 113 310 114 l 328 113 l 342 158 q 429 390 388 308 q 599 590 503 543 q 667 613 633 608 m 703 494 q 646 497 683 500 q 556 453 600 489 q 433 238 472 381 q 408 101 406 104 q 429 100 411 101 q 683 192 572 96 q 724 233 706 211 q 782 351 771 290 q 782 406 788 381 q 703 494 769 476 z "},"(":{"ha":1389,"x_min":76,"x_max":1311,"o":"m 379 707 q 400 710 383 710 q 425 701 422 710 q 421 672 429 696 q 265 429 371 538 q 210 379 235 399 l 206 375 l 747 375 l 1290 375 l 1296 372 q 1306 363 1304 367 q 1311 347 1311 356 q 1306 332 1311 339 q 1296 322 1304 328 l 1290 319 l 688 319 l 86 319 l 82 324 q 76 339 78 328 q 89 364 76 354 q 96 368 92 365 q 321 590 238 453 q 364 676 343 626 q 379 707 375 704 z "},")":{"ha":1389,"x_min":76,"x_max":1311,"o":"m 82 371 l 86 375 l 688 375 l 1290 375 l 1296 372 q 1306 363 1304 367 q 1311 347 1311 356 q 1306 332 1311 339 q 1296 322 1304 328 l 1290 319 l 747 319 l 206 319 l 210 315 q 265 265 235 296 q 421 22 371 157 q 425 -7 429 -1 q 400 -15 422 -15 q 375 -7 379 -15 q 367 14 374 -3 q 321 104 354 44 q 96 326 239 240 q 76 356 78 346 q 82 371 78 367 z "},"*":{"ha":1389,"x_min":78,"x_max":1311,"o":"m 968 707 q 1007 707 978 714 q 1021 682 1011 706 q 1067 590 1033 651 q 1267 383 1144 463 q 1296 365 1294 367 q 1311 340 1311 350 q 1306 324 1311 329 l 1301 319 l 700 319 l 97 319 l 92 322 q 82 332 83 328 q 78 347 78 338 q 82 363 78 357 q 92 372 83 367 l 97 375 l 640 375 l 1183 375 l 1178 379 q 1122 429 1153 399 q 967 672 1017 538 q 960 694 960 690 q 968 707 960 704 z "},"+":{"ha":1389,"x_min":78,"x_max":1311,"o":"m 92 372 l 97 375 l 700 375 l 1301 375 l 1306 371 q 1311 356 1311 365 q 1310 340 1311 343 q 1296 331 1303 333 q 1093 143 1169 253 q 1021 14 1053 88 q 1004 -14 1011 -12 q 988 -15 1000 -15 q 963 -7 965 -15 q 967 22 958 -1 q 1122 265 1017 157 q 1178 315 1153 296 l 1183 319 l 640 319 l 97 319 l 92 322 q 82 332 83 328 q 78 347 78 338 q 82 363 78 357 q 92 372 83 367 z "},",":{"ha":386,"x_min":65,"x_max":317,"o":"m 247 642 q 274 644 261 644 q 293 642 288 644 q 307 607 315 631 q 296 594 304 599 q 272 589 290 590 q 153 538 189 582 q 133 464 125 503 q 192 396 144 422 q 272 375 224 379 q 296 369 290 374 q 306 335 317 357 q 293 322 301 326 q 249 321 281 317 q 133 367 182 331 q 78 503 65 421 q 133 597 86 560 q 247 642 182 633 z "},"-":{"ha":386,"x_min":68,"x_max":319,"o":"m 92 642 q 136 643 104 647 q 251 597 203 633 q 307 461 319 543 q 251 367 299 404 q 136 321 203 331 q 92 322 104 317 q 78 357 69 333 q 89 369 81 365 q 113 375 94 374 q 232 426 196 382 q 251 500 260 461 q 193 568 240 542 q 113 589 161 585 q 89 594 94 590 q 79 629 68 607 q 92 642 83 638 z "},".":{"ha":694,"x_min":36,"x_max":657,"o":"m 51 697 q 69 699 61 703 q 361 535 88 692 q 654 360 644 369 q 657 347 657 357 q 651 332 657 336 q 361 160 638 321 q 63 -7 76 -4 q 51 -3 60 -7 q 40 8 43 0 l 36 15 l 36 347 l 36 679 l 40 686 q 51 697 43 694 m 333 486 l 93 625 q 92 347 92 625 q 93 69 92 69 l 572 347 l 333 486 z "},"/":{"ha":694,"x_min":36,"x_max":657,"o":"m 618 699 q 654 686 642 708 l 657 681 l 657 347 l 657 14 l 654 8 q 618 -4 643 -14 l 49 325 q 36 347 36 332 q 49 369 36 363 l 618 699 m 601 347 q 600 625 601 625 l 121 347 l 600 69 q 601 347 601 69 z "},":":{"ha":386,"x_min":93,"x_max":292,"o":"m 171 179 q 233 172 201 188 q 274 132 260 158 q 274 50 292 92 q 233 10 260 24 q 151 10 192 -8 q 111 50 125 24 q 111 132 93 92 q 171 179 128 168 z "},";":{"ha":386,"x_min":101,"x_max":301,"o":"m 172 181 q 254 156 219 190 q 296 64 283 126 q 294 -37 301 17 q 219 -218 279 -136 q 171 -269 193 -256 l 164 -269 q 132 -239 154 -267 q 128 -232 128 -235 q 144 -204 126 -224 q 217 -85 193 -154 q 233 -3 231 -40 q 231 8 233 8 q 193 1 217 1 q 161 6 172 1 q 122 31 139 11 q 101 92 101 56 q 122 151 101 126 q 172 181 138 171 z "},"<":{"ha":1081,"x_min":115,"x_max":972,"o":"m 531 561 q 940 750 929 749 q 949 747 943 750 q 963 713 971 736 q 954 701 960 706 q 579 522 953 700 l 210 347 l 579 172 q 954 -7 953 -6 q 960 -42 972 -21 q 949 -53 956 -49 q 926 -51 940 -57 q 531 133 904 -43 q 125 326 128 324 q 115 347 115 333 q 126 369 115 363 q 531 561 119 365 z "},"=":{"ha":694,"x_min":78,"x_max":617,"o":"m 579 1040 q 590 1042 581 1042 q 617 1019 613 1040 q 617 1014 617 1017 q 374 339 617 1007 q 128 -333 133 -324 q 92 -344 117 -354 q 82 -335 83 -336 q 78 -321 78 -329 q 319 356 78 -311 q 565 1028 560 1018 q 579 1040 569 1035 z "},">":{"ha":1081,"x_min":114,"x_max":964,"o":"m 131 747 q 153 746 139 751 q 549 561 175 738 q 954 368 951 371 q 964 347 964 361 q 954 326 964 333 q 549 133 951 324 l 149 -56 l 140 -56 q 115 -32 119 -54 q 119 -12 114 -22 q 231 44 125 -6 q 525 183 300 76 l 869 347 l 525 511 q 119 707 122 701 q 117 722 117 713 q 121 738 117 732 q 131 747 124 742 z "},"?":{"ha":694,"x_min":4,"x_max":692,"o":"m 340 672 q 361 665 354 681 l 385 531 q 408 399 407 399 l 542 418 q 679 436 678 438 q 690 424 688 433 q 675 406 692 415 q 567 349 664 400 q 446 285 444 283 q 504 161 444 283 q 565 38 565 39 q 558 25 565 28 q 542 24 551 21 l 444 119 q 347 213 349 213 q 250 119 346 213 l 153 24 q 136 25 143 21 q 129 38 129 28 q 190 161 129 39 q 249 285 250 283 q 128 349 250 283 q 4 418 7 411 q 4 424 4 419 q 15 436 7 433 q 153 418 17 438 l 286 399 q 310 531 288 399 q 335 667 332 661 q 340 672 335 672 z "},"@":{"ha":738,"x_min":46,"x_max":788,"o":"m 456 993 q 533 992 486 996 q 742 835 676 965 q 786 649 782 754 q 756 439 788 561 q 683 249 729 339 q 588 103 643 168 q 396 -19 504 11 q 313 -29 357 -29 q 238 -22 269 -29 q 101 79 154 -1 q 63 168 71 126 q 85 364 46 250 q 154 492 110 435 q 232 569 193 539 q 372 644 300 626 q 444 651 403 651 q 488 649 475 651 q 618 546 578 629 q 625 536 624 535 q 632 568 626 540 q 653 710 651 649 q 640 810 654 767 q 539 914 614 886 q 404 911 471 939 q 394 907 399 910 q 336 861 357 889 q 326 850 328 851 q 332 849 326 849 l 346 844 l 347 843 q 379 775 388 825 q 351 721 374 744 q 288 692 325 694 q 219 732 235 690 q 217 753 217 742 q 229 807 217 769 q 286 906 247 858 q 456 993 353 981 m 482 586 q 432 586 460 589 q 313 526 364 578 q 246 390 274 488 q 224 310 236 360 q 201 115 188 160 q 214 89 206 101 q 315 43 240 47 q 458 96 393 40 q 543 235 508 139 q 564 301 553 263 q 583 426 583 371 q 576 496 583 468 q 557 538 569 521 q 482 586 529 581 z "},"A":{"ha":1042,"x_min":49,"x_max":1011,"o":"m 735 993 l 767 994 l 768 994 q 808 986 806 994 q 846 536 810 981 q 883 86 881 89 q 893 82 885 85 q 974 78 910 78 l 1001 78 l 1007 74 q 1011 64 1011 67 l 999 8 q 968 1 994 0 q 947 1 963 1 q 618 0 746 7 l 601 0 l 597 4 q 592 15 592 10 q 606 69 592 38 q 646 78 608 78 q 690 81 679 81 q 725 92 722 86 q 719 183 726 93 q 713 275 713 264 q 554 278 713 278 l 394 278 l 353 204 q 307 122 308 129 q 311 99 301 108 q 371 78 325 82 q 396 68 390 78 l 397 64 l 390 36 q 379 4 385 10 l 375 0 l 358 0 q 140 3 243 6 q 68 0 69 0 l 58 0 l 54 4 q 49 14 49 10 l 61 69 q 93 78 67 78 q 228 133 190 82 l 479 564 q 726 988 721 982 q 735 993 728 989 m 690 556 q 675 757 675 754 q 614 656 675 763 l 497 454 l 440 357 l 572 356 l 706 356 q 690 556 706 354 z "},"B":{"ha":1054,"x_min":40,"x_max":1076,"o":"m 278 947 q 557 949 281 949 q 851 944 833 947 q 940 917 897 938 q 1019 849 992 890 q 1029 669 1076 765 q 1010 638 1021 653 q 946 572 989 606 q 785 499 878 522 q 781 496 781 497 q 831 483 790 496 q 958 382 924 454 q 951 208 997 303 q 763 36 896 96 q 747 29 754 32 q 653 4 701 11 q 343 0 635 1 q 44 4 50 0 l 42 10 q 46 42 40 14 q 57 74 54 69 l 63 78 l 110 78 q 197 89 188 79 q 297 475 201 92 q 393 861 393 858 q 390 865 393 863 q 315 871 385 868 l 268 871 l 264 875 q 264 914 256 881 q 278 947 271 943 m 797 869 q 676 871 789 871 l 556 869 q 538 861 542 868 q 494 693 538 858 l 453 526 l 567 526 l 682 528 l 696 531 q 833 617 781 551 q 878 692 861 647 q 886 753 886 722 q 883 788 886 776 q 854 839 875 818 q 797 869 832 861 m 722 457 l 711 460 l 574 461 l 438 461 l 390 274 q 343 83 343 88 q 349 79 343 81 l 478 79 q 617 82 603 79 q 772 189 715 104 q 813 310 808 243 q 776 425 814 381 q 722 457 751 450 z "},"C":{"ha":993,"x_min":65,"x_max":1057,"o":"m 661 978 l 722 978 q 901 879 836 967 q 910 869 908 871 q 956 914 908 869 q 1013 968 1015 971 l 1024 979 l 1035 979 q 1056 971 1053 979 q 1010 774 1057 968 q 960 578 960 574 q 921 569 957 569 l 892 569 l 888 574 q 885 599 882 579 q 886 613 885 600 q 869 790 900 713 q 750 899 836 882 q 674 900 725 904 q 667 899 669 899 q 440 801 543 881 q 249 444 301 688 q 231 303 231 371 q 247 196 231 239 q 269 153 253 178 q 465 49 331 61 q 618 78 544 40 q 801 265 736 135 q 829 336 818 300 q 843 360 836 358 q 867 361 847 361 q 901 353 899 361 q 899 333 903 347 q 825 182 875 251 q 739 88 786 126 q 476 -29 621 -17 q 390 -26 435 -35 q 171 81 254 -10 q 74 292 90 165 q 75 421 65 349 q 231 751 100 600 q 311 829 279 804 q 610 972 450 944 q 661 978 617 974 z "},"D":{"ha":1150,"x_min":39,"x_max":1118,"o":"m 276 947 q 556 949 279 949 q 860 943 840 947 q 875 939 861 943 q 972 897 932 926 q 1115 633 1103 810 q 1117 585 1118 610 q 968 213 1110 382 q 888 131 935 171 q 611 3 757 25 q 324 0 597 1 q 42 8 49 0 q 44 40 39 13 q 58 75 51 71 q 108 78 65 78 q 196 89 186 79 q 296 475 200 92 q 392 861 392 858 q 389 865 392 863 q 314 871 383 868 l 267 871 l 261 876 q 263 913 256 882 q 276 947 271 944 m 764 869 l 558 869 q 540 861 544 868 l 346 83 q 351 79 346 81 l 576 81 q 581 81 579 81 q 744 140 675 93 q 800 186 772 158 q 922 422 878 264 q 960 592 950 522 q 960 703 968 657 q 908 808 947 767 q 764 869 853 861 z "},"E":{"ha":1025,"x_min":36,"x_max":1061,"o":"m 271 942 l 275 944 l 664 944 l 1051 944 l 1057 940 q 1061 929 1061 935 l 1021 613 q 1015 601 1021 606 l 1011 597 l 988 597 q 958 600 963 597 q 954 633 951 604 q 954 640 954 636 q 961 735 961 697 q 906 844 957 818 q 854 860 881 856 q 682 865 815 867 q 542 857 549 865 l 458 529 l 532 529 q 650 540 624 531 q 700 575 681 550 q 736 665 719 600 q 746 688 742 683 l 750 692 l 774 692 q 808 682 803 692 q 764 489 810 676 q 714 297 715 299 q 681 289 711 289 l 657 289 l 651 293 q 651 325 646 300 q 656 422 668 396 q 600 449 646 443 q 514 450 592 450 l 439 451 l 393 269 q 347 83 347 85 q 350 79 347 82 l 601 79 q 742 110 683 83 q 804 153 776 128 q 919 354 858 207 q 936 389 931 383 l 940 393 l 965 393 l 990 393 l 994 389 q 994 367 1000 383 q 925 192 988 346 q 849 7 849 8 q 808 1 846 1 q 443 0 764 0 q 39 8 44 0 q 42 40 36 13 q 56 75 49 71 q 106 78 63 78 q 193 89 183 79 q 293 475 197 92 q 386 860 389 858 q 376 863 383 863 q 296 867 353 867 q 256 875 260 867 q 258 907 253 879 q 271 942 265 936 z "},"F":{"ha":893,"x_min":36,"x_max":1040,"o":"m 271 942 l 275 944 l 653 944 l 1031 944 l 1036 940 q 1040 929 1040 935 l 1000 613 q 994 601 1000 606 l 990 597 l 967 597 q 938 600 942 597 q 933 635 931 604 q 940 714 939 675 q 926 807 942 771 q 889 844 914 829 q 838 860 869 854 q 676 865 799 867 q 542 857 549 865 l 454 513 q 525 511 454 511 q 610 514 601 513 q 697 572 671 525 q 722 643 710 597 q 731 668 726 660 q 763 674 735 674 q 794 664 790 674 l 797 660 l 750 472 q 701 279 706 288 q 669 271 699 271 q 636 281 640 271 q 638 306 633 285 q 642 408 657 382 q 594 431 631 424 q 508 433 588 432 l 435 433 l 390 261 q 349 86 349 93 q 450 78 357 79 q 511 75 506 78 q 517 68 517 75 q 513 36 519 64 q 501 4 504 7 l 497 0 l 472 0 q 89 1 296 7 q 39 8 44 0 q 42 40 36 13 q 56 75 49 71 q 106 78 63 78 q 193 89 183 79 q 293 475 197 92 q 388 860 389 858 q 378 863 385 863 q 296 867 361 867 q 256 875 260 867 q 258 907 253 879 q 271 942 265 936 z "},"G":{"ha":1092,"x_min":65,"x_max":1057,"o":"m 661 978 l 722 978 q 901 879 836 967 q 910 869 908 871 q 956 914 908 869 q 1013 968 1015 971 l 1024 979 l 1035 979 q 1056 971 1053 979 q 1010 774 1057 968 q 960 578 960 574 q 921 569 957 569 l 892 569 l 888 574 q 885 599 882 579 q 886 613 885 600 q 869 790 900 713 q 750 899 836 882 q 674 900 725 904 q 667 899 669 899 q 440 801 543 881 q 272 533 326 710 q 239 394 249 461 q 256 175 215 254 q 324 97 279 128 q 424 54 363 68 q 650 93 558 28 q 661 101 656 97 q 703 156 692 128 q 738 292 738 294 q 732 294 738 294 q 639 301 721 300 q 572 311 578 301 q 576 343 571 315 q 589 375 583 369 l 593 379 l 617 379 q 960 378 794 372 q 1001 369 996 379 q 997 338 1003 365 q 985 306 990 311 l 981 301 l 960 301 q 897 296 908 301 q 890 290 894 294 q 853 147 886 286 q 814 4 818 8 q 779 17 806 -4 q 736 57 750 40 l 728 68 l 717 58 q 611 -1 675 21 q 499 -28 565 -19 q 397 -28 453 -33 q 390 -28 393 -28 q 171 81 256 -8 q 74 292 90 165 q 75 421 65 349 q 231 751 100 600 q 311 829 279 804 q 610 972 450 944 q 661 978 617 974 z "},"H":{"ha":1154,"x_min":36,"x_max":1242,"o":"m 274 947 q 299 949 276 949 q 649 947 467 942 q 699 939 693 949 q 694 907 701 935 q 685 875 688 881 l 681 871 l 632 871 q 551 864 563 869 q 540 850 543 861 q 499 693 533 833 l 458 532 l 653 532 l 847 533 l 889 696 q 929 861 929 857 q 926 865 929 863 q 851 871 921 868 l 804 871 l 799 876 q 794 885 794 881 l 810 942 q 846 947 814 949 q 868 947 851 947 q 1157 946 982 942 q 1185 947 1174 947 q 1239 939 1233 949 q 1235 907 1242 935 q 1225 875 1228 881 l 1221 871 l 1172 871 q 1092 864 1103 869 q 1083 856 1085 861 q 985 474 1075 835 q 888 89 889 90 q 900 82 886 83 q 965 78 917 79 q 1022 68 1017 78 q 1018 36 1024 64 q 1006 4 1011 10 l 1001 0 l 979 0 q 629 1 828 7 q 578 10 583 0 q 582 42 576 14 q 593 74 590 69 l 599 78 l 646 78 q 733 89 724 79 q 783 272 738 92 l 828 453 q 633 454 828 454 l 439 454 l 393 271 q 349 85 347 86 q 358 82 351 82 q 442 78 375 78 q 482 68 476 78 q 478 36 483 63 q 465 4 471 10 l 461 0 l 439 0 q 89 1 288 7 q 38 10 43 0 q 42 42 36 14 q 53 74 50 69 l 58 78 l 106 78 q 193 89 183 79 q 293 475 197 92 q 389 861 389 858 q 386 865 389 863 q 311 871 381 868 l 264 871 l 258 876 q 254 885 254 881 l 269 942 q 274 947 269 943 z "},"I":{"ha":611,"x_min":29,"x_max":707,"o":"m 265 946 q 289 949 269 949 q 576 946 418 943 l 682 949 l 697 949 l 701 944 q 707 933 707 939 q 693 879 707 911 q 653 871 690 871 q 636 871 646 871 q 544 860 554 869 l 539 856 l 444 472 q 349 88 349 92 q 361 82 347 83 q 431 78 379 79 q 489 68 483 78 q 485 36 490 64 q 472 4 478 10 l 468 0 l 446 0 q 83 1 286 7 q 31 10 36 0 q 35 42 29 14 q 46 74 43 69 l 51 78 l 100 78 q 188 86 174 79 q 197 93 192 88 l 389 861 q 386 865 389 863 q 308 871 375 869 q 250 879 254 871 q 253 911 247 883 q 265 946 260 940 z "},"J":{"ha":771,"x_min":67,"x_max":879,"o":"m 447 944 l 451 949 l 476 949 q 835 947 661 942 q 876 940 872 949 q 874 908 879 936 q 858 872 865 875 q 833 871 853 871 q 768 867 783 871 q 758 860 760 865 q 669 519 751 846 q 581 171 586 186 q 461 29 550 89 q 381 -11 421 3 q 151 -6 250 -56 q 79 64 101 19 q 67 121 67 88 q 75 176 67 157 q 101 215 86 200 q 194 247 142 256 q 250 203 236 239 q 253 179 253 196 q 235 118 253 146 q 175 74 210 83 l 169 71 l 192 54 q 269 36 224 36 q 324 47 300 36 q 428 160 393 79 q 438 186 433 172 q 525 531 438 188 q 606 863 607 861 q 501 871 596 869 q 431 881 436 871 q 435 913 429 885 q 447 944 442 939 z "},"K":{"ha":1179,"x_min":36,"x_max":1236,"o":"m 274 947 q 299 949 276 949 q 649 947 465 942 q 700 939 693 949 l 701 935 l 694 907 q 685 875 688 881 l 681 871 l 632 871 q 551 864 563 869 q 540 853 544 861 q 488 649 535 835 l 436 442 q 676 631 436 440 q 925 831 915 821 q 933 860 942 850 q 903 871 926 868 q 886 876 892 871 q 882 886 882 881 q 896 940 882 908 q 922 947 900 949 q 954 947 929 947 q 1183 946 1072 942 q 1199 947 1193 947 q 1233 939 1228 949 q 1229 907 1236 935 q 1214 874 1221 875 q 1192 871 1211 872 q 1008 813 1083 867 q 993 803 994 804 q 851 692 990 803 l 711 581 l 714 574 q 810 339 710 581 q 910 103 904 108 q 983 78 925 81 q 996 78 989 78 q 1036 68 1031 78 q 1032 36 1038 64 q 1019 4 1025 10 l 1015 0 l 997 0 q 692 1 879 6 q 640 8 646 0 q 643 40 638 13 q 656 75 650 69 q 674 78 660 78 q 732 92 714 78 q 735 114 739 100 q 663 296 729 135 l 586 479 q 499 411 586 483 l 413 343 l 379 215 q 349 85 347 86 q 358 82 351 82 q 440 78 375 78 q 475 75 472 78 q 483 63 483 72 l 469 8 q 442 1 464 0 q 410 1 435 1 q 119 3 294 7 q 93 1 103 1 q 39 8 44 0 q 42 40 36 13 q 56 75 49 71 q 106 78 63 78 q 193 89 183 79 q 293 475 197 92 q 389 861 389 858 q 386 865 389 863 q 311 871 381 868 l 264 871 l 258 876 q 260 913 253 882 q 274 947 268 943 z "},"L":{"ha":946,"x_min":36,"x_max":903,"o":"m 274 947 q 296 949 276 949 q 589 946 404 943 q 710 949 711 949 l 726 949 l 731 944 q 732 913 738 938 q 731 907 732 910 q 718 874 724 876 q 675 871 714 871 q 568 867 593 871 q 540 856 546 864 l 347 83 q 353 79 347 81 l 446 79 q 581 88 549 79 q 586 89 583 88 q 742 188 681 111 q 825 356 781 236 q 842 390 838 389 q 888 392 851 397 q 894 390 893 392 q 903 378 903 388 l 771 7 q 735 1 768 1 q 404 0 693 0 q 43 3 47 0 q 38 10 39 7 q 42 42 36 15 q 53 74 50 69 l 58 78 l 106 78 q 193 89 183 79 q 293 475 197 92 q 389 861 389 858 q 386 865 389 863 q 311 871 381 868 l 264 871 l 260 875 q 260 914 251 881 q 274 947 267 943 z "},"M":{"ha":1347,"x_min":42,"x_max":1468,"o":"m 278 946 q 431 949 282 949 q 582 946 578 949 q 589 939 586 943 q 636 560 592 933 l 682 185 l 917 560 q 1153 940 1146 933 l 1161 946 l 1163 946 q 1313 949 1168 949 q 1461 946 1457 949 q 1467 939 1464 944 q 1461 907 1468 932 q 1451 875 1454 881 l 1447 871 l 1399 871 q 1318 864 1329 869 q 1310 856 1311 861 q 1211 474 1301 835 q 1114 89 1115 90 q 1126 82 1113 85 q 1193 78 1142 79 q 1242 75 1236 78 q 1250 63 1250 72 l 1236 8 q 1207 1 1231 0 q 1178 1 1200 1 q 896 3 1067 7 q 869 1 879 1 q 817 8 822 0 q 819 40 814 13 q 833 75 826 71 q 883 78 840 78 q 971 89 961 79 q 1071 475 975 92 l 1165 856 l 904 436 q 640 11 644 15 q 631 4 635 6 q 601 0 624 0 q 569 10 572 0 q 518 426 568 14 q 467 842 467 840 l 299 169 q 286 118 286 121 q 376 78 286 82 q 404 75 399 78 q 413 63 413 72 l 399 8 q 371 1 393 0 q 347 1 365 1 q 113 3 253 7 q 90 1 99 1 q 44 8 50 0 q 47 40 42 13 q 60 75 54 69 q 79 78 64 78 q 179 96 139 78 q 210 125 206 111 l 394 861 q 392 865 394 863 q 317 871 386 868 l 269 871 l 264 876 q 265 910 258 882 q 278 946 274 943 z "},"N":{"ha":1115,"x_min":36,"x_max":1242,"o":"m 274 947 l 557 947 l 560 947 q 565 943 565 944 q 711 599 568 938 q 856 261 856 254 l 997 829 q 975 858 997 850 q 896 871 950 871 l 881 871 l 875 875 q 871 885 871 881 l 886 942 q 924 947 890 949 q 936 947 928 947 q 1171 946 1031 942 q 1193 947 1185 947 q 1239 939 1233 949 q 1235 907 1242 935 q 1224 875 1228 879 l 1219 871 l 1204 871 q 1074 826 1103 871 q 971 417 1068 811 q 868 10 868 6 q 832 0 857 0 l 806 0 l 801 4 q 626 414 796 10 q 454 817 454 821 q 367 469 453 815 q 281 118 281 122 q 371 78 281 82 q 406 68 400 78 q 401 36 407 64 q 389 4 394 10 l 385 0 l 367 0 q 82 1 239 7 q 38 10 43 0 q 42 42 36 14 q 54 74 49 68 l 58 78 l 74 78 q 190 107 157 78 q 206 135 200 117 q 299 497 215 164 l 392 868 l 388 868 l 324 871 l 264 871 l 258 876 q 254 885 254 881 l 269 942 q 274 947 269 943 z "},"O":{"ha":1060,"x_min":65,"x_max":1051,"o":"m 638 978 q 728 976 672 981 q 925 879 847 960 q 1021 683 1001 803 q 950 317 1051 503 q 907 249 931 282 q 715 64 828 135 q 567 -7 640 15 q 229 22 374 -67 q 175 64 200 40 q 71 279 92 146 q 69 392 65 324 q 71 401 71 397 q 232 751 96 592 q 315 835 271 796 q 638 978 469 963 m 700 906 q 629 908 665 911 q 464 839 539 897 q 296 607 354 756 q 235 367 253 500 q 233 250 229 313 q 235 242 235 244 q 351 61 256 110 q 565 72 444 14 q 806 360 721 149 q 868 610 854 485 q 868 707 874 656 q 868 713 868 710 q 807 847 853 801 q 700 906 763 893 z "},"P":{"ha":892,"x_min":39,"x_max":1047,"o":"m 275 946 q 538 949 279 949 q 810 947 800 949 q 988 869 919 936 q 1039 769 1026 829 q 1042 703 1047 740 q 910 494 1028 585 q 751 418 839 440 q 622 404 701 404 q 550 404 603 404 l 429 404 l 390 246 q 353 85 350 86 q 363 82 356 82 q 443 78 385 78 q 478 75 475 78 q 486 63 486 72 l 472 8 q 444 1 467 0 q 413 1 438 1 q 122 3 297 7 q 96 1 106 1 q 42 8 47 0 q 44 40 39 13 q 58 75 51 71 q 108 78 65 78 q 196 89 186 79 q 296 475 200 92 q 392 861 392 858 q 389 865 392 863 q 314 871 383 868 l 267 871 l 261 876 q 263 910 256 882 q 275 946 271 943 m 756 869 l 558 869 q 540 861 544 868 l 492 669 q 443 478 443 479 q 551 475 443 475 q 703 483 671 476 q 815 546 778 499 q 867 675 846 586 q 882 767 882 735 q 867 824 882 803 q 756 869 833 864 z "},"Q":{"ha":1099,"x_min":65,"x_max":1051,"o":"m 638 978 q 728 976 672 981 q 925 879 847 960 q 1021 683 1001 803 q 950 317 1051 503 q 907 249 931 282 q 822 149 871 197 q 643 24 739 68 q 622 11 622 13 q 625 -6 622 8 q 686 -96 643 -81 q 744 -99 710 -104 q 861 -24 826 -83 q 869 -4 867 -14 q 886 15 875 15 q 901 3 899 15 q 892 -37 901 -6 q 840 -151 868 -107 q 738 -254 797 -224 q 617 -258 669 -285 q 572 -215 588 -244 q 554 -122 556 -185 q 558 -15 554 -40 l 558 -10 l 538 -15 q 203 40 342 -65 q 175 64 189 51 q 71 279 92 146 q 69 392 65 324 q 71 401 71 397 q 232 751 96 592 q 315 835 271 796 q 638 978 469 963 m 701 906 q 636 908 660 914 q 621 907 626 908 q 451 829 536 896 q 358 728 400 786 q 239 424 274 604 q 225 283 224 342 q 240 186 226 231 q 311 82 263 119 l 321 74 l 324 86 q 393 193 332 150 q 488 222 439 225 q 590 144 560 218 q 606 97 604 107 q 607 92 606 92 l 621 101 q 851 499 789 219 q 871 639 869 572 q 864 728 871 692 q 725 899 836 863 q 701 906 714 903 m 494 156 q 428 143 458 161 q 397 110 404 126 q 404 46 376 69 q 411 42 407 43 q 464 40 426 35 q 550 63 510 46 l 557 65 l 557 75 q 544 119 551 104 q 494 156 529 150 z "},"R":{"ha":1054,"x_min":39,"x_max":1056,"o":"m 276 947 q 521 949 279 949 q 797 943 774 947 q 810 940 800 942 q 994 831 938 917 q 1025 728 1026 783 q 1004 649 1024 689 q 950 576 985 610 q 763 467 882 508 q 767 463 761 467 q 772 458 769 460 q 840 369 821 425 q 847 261 853 331 q 843 222 846 246 q 836 117 836 150 q 856 47 838 65 q 893 36 868 36 q 915 39 908 36 q 949 65 932 46 q 976 119 967 92 q 993 144 983 142 q 1014 146 999 146 q 1046 139 1040 146 q 1032 81 1056 128 q 918 -26 990 -7 q 876 -29 907 -29 q 829 -28 840 -29 q 667 83 694 -10 q 664 146 658 111 q 683 231 671 181 q 703 314 697 286 q 692 388 710 351 q 674 411 685 400 q 615 440 650 433 q 521 442 610 442 l 435 442 l 433 436 q 389 260 433 438 q 347 85 346 86 q 357 82 350 82 q 440 78 374 78 q 481 68 475 78 q 476 36 482 63 q 464 4 469 10 l 460 0 l 439 0 q 92 1 288 7 q 40 10 46 0 q 44 42 39 14 q 56 74 53 69 l 61 78 l 108 78 q 196 89 186 79 q 296 475 200 92 q 392 861 392 858 q 389 865 392 863 q 314 871 383 868 l 267 871 l 261 876 q 257 885 257 881 l 272 942 q 276 947 272 943 m 747 868 q 650 871 739 869 l 558 869 q 540 861 544 868 l 451 507 l 544 507 q 656 510 646 508 q 824 613 782 528 q 860 732 846 658 q 860 793 865 768 q 747 868 843 854 z "},"S":{"ha":851,"x_min":72,"x_max":897,"o":"m 565 978 l 638 976 q 711 953 676 969 q 774 903 747 936 q 781 896 779 897 l 821 936 q 863 978 861 976 q 890 978 869 983 q 896 971 894 974 q 857 804 897 965 q 813 638 815 640 l 808 633 l 783 633 q 749 642 751 633 q 750 660 747 646 q 735 819 763 757 q 618 903 701 889 q 544 903 585 908 q 446 847 492 892 q 382 682 367 769 q 446 600 390 622 l 542 574 q 644 546 596 560 q 711 500 681 531 q 747 449 733 478 q 761 267 786 367 q 611 39 729 131 q 592 25 601 32 q 510 -15 543 -4 q 404 -31 458 -32 q 260 3 318 -26 q 203 43 232 15 l 190 56 q 150 14 189 56 l 107 -29 l 93 -31 l 92 -31 q 76 -26 81 -31 q 72 -19 72 -22 q 153 307 72 -15 q 188 315 156 315 l 213 315 l 217 311 q 218 282 222 306 q 217 275 218 279 q 214 189 207 224 q 418 47 242 54 q 479 56 454 47 q 604 164 557 81 q 631 231 624 196 q 604 364 647 314 q 568 388 590 378 l 472 414 q 343 454 367 442 q 244 626 249 508 q 260 729 242 676 q 428 932 303 860 q 463 950 444 942 q 550 976 510 972 q 565 978 556 978 z "},"T":{"ha":811,"x_min":24,"x_max":979,"o":"m 136 936 l 140 940 l 553 940 q 976 932 969 940 q 953 765 979 925 q 924 600 925 601 q 890 593 918 593 q 858 601 861 593 q 860 636 856 607 q 868 806 881 763 q 781 860 856 847 q 700 861 768 861 q 614 854 621 863 q 517 469 611 851 l 421 88 l 425 85 q 563 78 443 78 l 606 78 l 611 74 q 615 64 615 68 l 603 8 q 575 1 599 0 q 535 1 567 1 q 82 0 244 7 l 61 0 l 57 4 q 56 36 50 11 q 57 42 56 39 q 69 75 64 72 q 118 78 74 78 q 239 82 211 78 q 269 92 261 83 q 367 476 272 96 q 463 860 463 858 q 376 863 457 863 q 299 858 313 861 q 181 800 218 846 q 103 632 144 756 q 92 600 92 601 q 58 593 86 593 q 25 603 31 593 l 24 607 l 76 769 q 136 936 132 932 z "},"U":{"ha":949,"x_min":71,"x_max":1074,"o":"m 106 947 q 131 949 108 949 q 481 947 299 942 q 531 939 525 949 q 526 907 533 935 q 517 875 519 881 l 513 871 l 464 871 q 383 864 394 869 q 374 854 376 861 q 300 571 365 835 q 226 272 228 281 q 271 78 199 131 q 339 50 293 60 q 426 51 382 44 q 632 176 553 72 q 689 286 668 225 l 825 829 q 803 858 825 850 q 724 871 778 871 l 708 871 l 703 875 q 699 885 699 881 l 714 942 q 751 947 718 949 q 764 947 756 947 q 1001 946 858 942 q 1024 947 1015 947 q 1071 939 1065 949 q 1067 907 1074 935 q 1056 875 1060 879 l 1051 871 l 1036 871 q 906 826 935 871 q 839 561 899 806 q 769 289 769 290 q 614 64 725 153 q 354 -31 489 -35 q 219 3 278 -26 q 156 49 182 22 q 82 181 99 104 q 81 289 71 231 q 151 581 81 292 q 221 861 221 853 q 218 865 221 863 q 143 871 213 868 l 96 871 l 90 876 q 86 885 86 881 l 101 942 q 106 947 101 943 z "},"V":{"ha":810,"x_min":68,"x_max":1068,"o":"m 86 946 l 90 949 l 110 949 q 429 947 240 942 q 481 939 475 949 q 476 907 483 935 q 463 874 468 876 q 431 871 458 872 q 386 868 397 868 q 351 858 357 863 q 386 526 350 857 q 424 190 422 194 q 428 194 424 189 q 617 500 440 213 q 811 821 813 825 q 815 843 817 835 q 754 871 808 867 q 728 881 733 871 q 732 913 726 885 q 744 944 739 939 l 749 949 l 765 949 q 981 946 881 943 l 1049 949 l 1058 949 l 1063 944 q 1068 933 1068 939 q 1054 879 1068 911 q 1024 871 1051 871 q 915 839 954 867 q 889 810 904 829 q 633 393 879 796 q 381 -19 382 -18 q 369 -28 381 -21 q 332 -31 363 -31 q 296 -26 303 -31 q 292 -19 292 -22 q 242 421 292 -11 q 192 863 194 860 q 182 867 190 864 q 107 871 165 871 q 71 879 74 871 q 74 911 68 883 q 86 946 81 940 z "},"W":{"ha":1311,"x_min":67,"x_max":1456,"o":"m 85 944 l 89 949 l 107 949 q 421 947 231 942 q 472 939 467 949 q 467 907 474 935 q 456 875 461 881 l 451 871 l 432 871 q 342 860 367 871 l 336 857 l 336 847 q 358 528 338 842 l 378 215 l 688 761 l 679 861 l 679 863 q 672 867 679 864 q 603 871 657 871 q 568 881 572 871 q 572 913 565 885 q 583 944 581 942 l 588 949 l 606 949 q 919 947 728 942 q 971 939 965 949 q 967 907 972 935 q 954 875 960 881 l 950 871 l 931 871 q 842 860 867 871 l 835 857 l 835 849 q 857 529 836 843 q 876 215 876 231 q 1181 750 879 210 q 1221 825 1219 822 q 1215 849 1226 838 q 1136 871 1190 871 q 1118 881 1122 871 q 1122 913 1115 885 q 1133 944 1131 942 l 1138 949 l 1156 949 l 1247 946 q 1375 946 1322 944 l 1438 949 q 1450 944 1446 949 q 1456 935 1456 939 l 1442 881 l 1442 879 q 1422 871 1438 871 q 1338 854 1374 871 q 1289 811 1308 840 q 1054 397 1283 803 q 819 -17 825 -8 q 808 -26 814 -25 q 776 -31 801 -31 q 746 -28 750 -31 l 740 -22 q 717 310 739 -21 q 696 642 696 649 q 657 576 696 643 q 508 314 617 506 q 315 -22 318 -19 q 274 -31 307 -31 l 249 -29 l 244 -25 q 240 -14 240 -21 q 211 425 239 -11 q 182 861 185 857 q 174 867 181 864 q 104 871 149 871 q 68 881 74 871 l 67 885 l 74 913 q 85 944 79 939 z "},"X":{"ha":1150,"x_min":36,"x_max":1183,"o":"m 290 944 l 294 949 l 311 949 q 565 946 396 943 q 672 949 674 949 l 686 949 l 690 944 q 696 933 696 939 q 682 879 696 911 q 657 871 678 871 q 601 861 629 869 l 586 857 l 589 850 l 682 608 l 875 826 q 874 851 883 840 q 826 871 858 869 q 808 876 813 871 q 804 885 804 881 l 818 939 l 818 940 q 847 947 822 949 q 871 947 853 947 q 1161 949 1071 942 l 1174 949 l 1178 944 q 1183 933 1183 939 q 1169 879 1183 911 q 1147 871 1167 871 q 972 824 1031 871 q 826 665 947 804 l 710 535 l 794 313 q 883 88 879 92 q 969 78 896 79 l 1015 78 l 1019 72 q 1024 63 1024 68 q 1010 8 1024 40 q 981 1 1006 0 q 957 1 975 1 q 685 3 857 7 q 658 1 669 1 q 601 10 607 0 q 606 42 600 14 q 618 74 613 68 q 631 78 622 78 q 676 83 654 78 q 710 93 710 90 l 592 400 q 379 161 589 403 q 344 121 346 124 q 340 108 340 115 q 349 94 342 100 q 399 78 368 78 q 411 74 407 78 q 415 64 415 68 l 403 8 q 372 1 399 0 q 349 1 365 1 q 58 0 149 7 l 46 0 l 42 4 q 36 14 36 10 l 49 68 q 72 78 53 78 q 139 83 103 78 q 238 118 199 92 q 390 279 260 132 q 418 311 403 293 q 561 471 558 469 l 564 475 l 490 667 q 415 860 415 858 q 329 871 404 869 q 274 881 279 871 q 278 913 272 885 q 290 944 285 939 z "},"Y":{"ha":807,"x_min":36,"x_max":1060,"o":"m 58 947 q 79 949 61 949 q 332 946 175 943 q 439 949 440 949 l 454 949 l 458 944 q 464 935 464 939 l 451 881 q 424 871 449 871 q 350 860 356 871 l 481 478 l 747 794 q 775 829 774 826 q 782 846 779 838 q 776 858 782 853 q 739 871 767 869 q 715 881 719 871 q 719 913 713 885 q 731 944 725 939 l 735 949 l 754 949 q 1021 947 890 942 q 1057 940 1053 949 q 1054 908 1060 936 q 1038 872 1046 875 q 1015 871 1035 872 q 883 836 931 867 q 775 718 863 821 q 668 590 744 682 l 490 379 l 454 236 q 418 89 418 90 q 421 83 418 86 q 496 78 426 81 l 543 78 l 547 74 q 547 38 556 68 q 539 8 543 17 q 513 1 535 0 q 481 1 506 1 q 192 3 368 7 q 165 1 175 1 q 111 10 117 0 q 115 42 110 14 q 126 74 124 69 l 132 78 l 179 78 q 269 92 261 79 q 274 100 272 94 l 310 244 l 343 381 l 263 619 q 168 865 181 858 q 93 871 156 869 l 49 871 l 43 876 q 44 914 36 883 q 58 947 53 943 z "},"Z":{"ha":949,"x_min":79,"x_max":1007,"o":"m 353 946 q 676 949 356 949 l 997 949 l 1000 946 q 999 913 1007 940 l 994 893 l 975 872 q 618 467 971 867 l 279 83 l 374 82 q 535 88 490 82 q 696 164 636 101 q 792 350 749 218 q 813 403 808 400 q 842 406 817 406 l 865 406 l 871 401 q 875 392 875 396 l 757 10 q 751 3 756 7 q 417 0 747 0 q 85 3 88 0 q 85 31 79 7 l 90 56 q 450 465 94 64 l 807 871 l 718 871 q 564 865 607 871 q 358 718 424 844 q 326 638 339 678 q 314 606 318 610 l 310 601 l 285 601 l 260 601 l 256 606 q 250 614 254 607 q 297 778 250 622 q 347 940 344 935 q 353 946 347 946 z "},"[":{"ha":540,"x_min":76,"x_max":463,"o":"m 83 1039 q 113 1042 88 1042 l 136 1042 l 140 1038 l 146 1033 l 146 825 l 146 615 l 157 622 q 274 654 206 651 q 311 653 300 654 q 439 551 396 638 q 463 447 463 503 q 331 138 463 289 q 249 56 294 94 q 156 -15 194 11 l 136 -31 l 111 -31 l 86 -31 l 82 -26 l 78 -22 l 76 503 q 78 1032 76 1029 q 83 1039 79 1035 m 275 569 q 194 560 243 585 q 147 507 154 542 q 146 283 146 500 l 147 69 l 160 85 q 308 379 286 240 q 293 551 329 494 q 275 569 286 564 z "},"\\":{"ha":540,"x_min":76,"x_max":464,"o":"m 125 1025 q 143 1018 138 1028 l 144 822 l 144 819 l 146 622 l 296 685 q 450 746 446 746 q 458 742 454 746 l 464 738 l 464 224 l 464 -292 l 460 -294 q 408 -315 450 -304 q 396 -308 400 -315 l 394 -168 l 394 -165 l 394 -24 l 244 -86 q 89 -147 92 -147 q 81 -143 85 -147 l 76 -139 l 76 431 l 76 1001 l 79 1004 q 125 1025 85 1010 m 393 126 q 394 351 394 126 l 394 575 l 269 524 l 146 472 l 144 249 l 144 24 l 147 25 l 393 126 z "},"]":{"ha":540,"x_min":76,"x_max":463,"o":"m 400 1010 q 418 1003 411 1013 q 419 868 419 1000 l 419 736 q 432 742 421 736 q 457 742 450 749 l 463 738 l 463 672 l 463 607 l 458 604 q 438 593 457 601 l 419 586 l 419 361 l 419 138 l 432 142 q 457 143 450 150 l 463 139 l 463 74 l 463 8 l 458 6 q 438 -6 457 3 l 419 -12 l 419 -104 l 419 -194 l 415 -199 q 390 -211 410 -204 q 365 -221 368 -221 q 353 -214 356 -221 q 350 -126 350 -208 l 350 -42 l 269 -75 l 190 -108 l 189 -200 l 189 -292 l 185 -294 q 135 -315 175 -304 q 126 -314 129 -315 q 119 -274 119 -310 q 119 -221 119 -261 l 119 -137 q 107 -143 118 -137 q 82 -143 89 -150 l 78 -139 l 76 -76 q 86 -1 76 -8 q 106 7 97 4 l 119 13 l 119 238 l 119 461 l 107 457 q 82 456 89 449 l 78 460 l 76 522 q 86 597 76 590 q 106 606 97 603 l 119 611 l 119 750 l 119 889 l 124 893 q 149 906 129 899 q 174 915 171 915 q 186 908 183 915 q 189 772 189 903 l 190 640 l 269 674 l 350 707 l 350 846 l 351 986 l 354 989 q 400 1010 360 994 m 349 108 q 350 333 350 108 l 350 557 l 269 524 l 190 490 l 189 267 l 189 42 l 192 43 l 349 108 z "},"^":{"ha":1389,"x_min":68,"x_max":1321,"o":"m 100 531 q 126 529 111 535 q 149 506 131 526 q 310 371 214 424 q 732 283 485 274 q 874 299 804 286 q 1239 506 1110 344 q 1263 529 1254 526 q 1278 532 1268 532 l 1292 529 q 1308 482 1321 513 q 1231 393 1294 457 q 1047 264 1154 317 q 769 188 924 204 q 624 188 703 182 q 618 188 621 188 q 340 264 464 204 q 157 393 233 317 q 79 482 93 457 q 89 525 68 507 q 100 531 94 529 z "},"_":{"ha":1389,"x_min":76,"x_max":1314,"o":"m 665 546 q 839 532 757 547 q 1238 306 1076 483 q 1307 214 1288 250 q 1308 182 1314 199 q 1268 164 1296 157 q 1263 165 1265 164 q 1238 193 1254 169 q 883 426 1114 369 q 693 449 790 449 q 504 426 597 449 q 150 193 274 369 q 125 165 133 169 q 108 163 119 163 q 76 197 82 171 q 99 240 76 210 q 257 403 165 335 q 658 546 436 536 q 665 546 661 546 z "},"`":{"ha":579,"x_min":6,"x_max":551,"o":"m 451 978 q 511 969 488 982 q 549 917 538 957 q 551 871 551 906 q 549 815 551 835 q 263 308 506 576 q 246 289 249 294 q 233 224 240 283 q 233 117 228 172 q 233 110 233 113 q 272 35 244 47 q 319 35 289 26 q 453 126 368 47 q 476 147 475 146 q 504 129 486 151 q 517 100 519 107 q 442 32 507 85 q 340 -25 390 -8 q 283 -33 313 -33 q 228 -22 251 -33 q 132 156 156 14 q 129 171 129 169 l 90 133 q 47 93 53 96 q 22 110 38 90 q 7 139 6 133 q 32 165 13 149 l 90 224 l 126 258 l 126 281 q 157 476 131 361 q 322 865 215 704 q 451 978 386 964 m 476 911 l 465 914 q 449 910 456 914 q 383 811 419 894 q 325 631 357 749 l 271 417 q 322 481 274 417 q 463 747 424 617 q 483 836 476 800 q 486 875 486 849 q 483 903 486 897 q 476 911 481 910 z "},"a":{"ha":735,"x_min":35,"x_max":714,"o":"m 369 613 q 394 614 371 614 q 429 610 419 611 q 504 563 475 596 l 511 553 l 521 563 q 599 582 558 597 q 626 556 619 575 q 619 486 632 539 q 581 329 611 450 q 529 119 532 139 q 531 69 524 89 q 563 50 539 47 q 597 76 579 51 q 638 185 617 106 q 650 211 643 208 q 676 213 654 213 q 706 210 703 213 q 706 178 714 204 q 613 7 669 49 q 568 -14 590 -10 q 506 -10 539 -18 q 417 56 443 4 l 413 65 l 404 58 q 188 -8 294 -36 q 131 17 157 0 q 40 182 51 72 q 42 263 35 219 q 138 476 60 379 q 196 535 164 508 q 356 611 275 600 q 369 613 361 613 m 410 544 q 364 547 382 551 q 281 499 321 539 q 210 346 240 456 q 194 288 203 321 q 171 147 171 193 q 189 79 171 104 q 263 51 215 44 q 371 113 315 57 q 408 158 396 138 q 446 304 408 154 l 481 447 l 479 457 q 410 544 461 526 z "},"b":{"ha":596,"x_min":46,"x_max":603,"o":"m 224 956 q 332 964 335 964 q 349 954 344 964 q 303 758 350 949 q 254 565 254 564 q 268 572 254 563 q 357 611 313 600 q 432 610 397 617 q 529 558 490 597 q 579 474 564 524 q 586 322 603 404 q 443 71 558 171 q 401 39 422 53 q 321 -1 358 11 q 161 3 231 -31 q 50 174 65 49 q 50 253 46 197 q 126 568 54 281 q 190 860 196 849 q 131 871 181 869 q 93 881 97 871 q 97 913 90 885 q 108 944 104 942 q 117 949 113 949 l 224 956 m 407 544 q 340 542 378 553 q 231 451 283 518 l 224 442 l 200 344 q 164 160 164 201 q 193 72 164 101 q 283 56 228 38 q 374 129 338 74 q 418 236 394 161 q 451 376 442 325 q 454 499 469 460 q 407 544 440 533 z "},"c":{"ha":601,"x_min":19,"x_max":601,"o":"m 404 613 l 461 613 q 588 528 563 597 q 581 443 601 486 q 563 417 571 425 q 482 389 525 382 q 446 404 461 392 q 429 438 432 418 q 457 517 422 479 q 478 532 467 526 q 483 536 482 535 q 446 547 483 540 q 281 485 354 560 q 203 321 232 432 q 199 301 201 311 q 176 146 171 190 q 256 54 186 72 q 342 54 285 46 q 490 114 429 67 q 535 154 517 131 q 560 165 550 172 q 575 151 564 163 q 593 125 594 131 q 544 74 588 110 q 532 64 538 68 q 294 -15 433 -11 q 139 26 203 -17 q 82 82 107 46 q 46 168 56 121 q 108 429 19 297 q 129 458 118 444 q 196 525 153 489 q 404 613 294 604 z "},"d":{"ha":722,"x_min":36,"x_max":735,"o":"m 607 956 q 717 964 718 964 q 733 954 729 964 q 633 540 735 949 q 529 118 529 126 q 531 69 524 89 q 563 50 539 47 q 597 76 579 51 q 638 185 617 106 q 650 211 643 208 q 676 213 654 213 q 706 210 703 213 q 706 178 714 204 q 613 7 669 49 q 568 -14 590 -10 q 506 -10 539 -18 q 417 56 443 4 l 413 65 l 404 58 q 188 -8 294 -36 q 131 17 157 0 q 40 182 51 72 q 47 290 36 232 q 121 453 68 381 q 332 606 206 572 q 390 613 356 613 q 429 610 417 613 q 497 569 467 600 l 508 558 l 510 564 q 544 700 510 561 q 576 858 582 850 q 506 871 568 871 q 476 881 481 871 q 482 913 475 888 q 493 944 488 939 q 501 949 497 949 q 607 956 514 949 m 410 544 q 364 547 382 551 q 281 499 321 539 q 210 346 240 456 q 194 288 203 321 q 171 147 171 193 q 189 79 171 104 q 289 57 222 35 q 399 144 346 76 l 408 157 l 444 303 l 481 449 l 478 460 q 410 544 458 528 z "},"e":{"ha":647,"x_min":47,"x_max":596,"o":"m 404 613 l 460 613 q 588 521 560 597 q 590 464 596 493 q 436 324 567 357 q 243 303 378 307 l 199 303 l 196 294 q 182 222 190 271 q 182 143 176 178 q 217 78 190 103 q 303 50 249 49 q 490 114 414 57 q 535 154 517 131 q 560 165 550 172 q 575 151 564 163 q 593 125 594 131 q 563 89 592 118 q 338 -11 475 6 q 254 -14 290 -19 q 72 118 124 0 q 57 163 63 139 q 47 250 47 197 q 83 400 49 332 q 151 494 108 451 q 203 538 172 514 q 386 611 288 600 q 404 613 393 613 m 442 547 q 333 528 390 557 q 219 383 251 490 q 215 371 217 372 q 261 368 215 368 q 397 381 351 369 q 508 461 492 400 q 507 500 514 483 q 442 547 494 536 z "},"f":{"ha":681,"x_min":78,"x_max":763,"o":"m 617 978 q 663 976 640 981 q 751 918 726 968 q 763 871 763 896 q 751 819 763 842 q 733 794 744 807 q 708 776 721 783 q 617 783 653 750 q 610 869 583 814 q 642 907 622 893 q 647 911 647 908 l 635 914 q 615 910 622 914 q 600 897 607 907 q 589 876 592 889 q 553 693 579 836 q 535 601 535 603 q 614 599 535 599 q 706 589 699 599 l 707 585 l 701 557 q 690 526 694 531 l 686 522 l 603 521 l 521 521 l 492 371 q 426 39 440 93 q 307 -231 382 -154 q 256 -271 283 -256 q 207 -285 229 -283 q 133 -268 168 -286 q 107 -250 124 -264 q 78 -176 78 -219 q 89 -125 78 -147 q 107 -100 96 -112 q 132 -82 119 -89 q 224 -89 188 -56 q 231 -175 257 -119 q 197 -212 217 -200 q 192 -217 193 -215 q 210 -219 192 -219 l 218 -218 l 219 -218 q 253 -176 239 -208 q 314 106 264 -149 l 392 519 q 322 521 392 521 l 253 521 l 247 525 q 249 563 242 532 q 261 596 256 593 q 336 599 265 599 q 407 600 407 599 l 433 742 q 506 911 460 860 q 617 978 551 967 z "},"g":{"ha":663,"x_min":4,"x_max":674,"o":"m 401 611 q 481 607 449 618 q 550 560 518 596 l 556 554 l 565 563 q 642 582 599 596 q 669 556 663 575 q 663 490 674 540 q 594 213 651 440 q 511 -111 511 -112 q 465 -186 496 -154 q 382 -246 428 -224 q 308 -272 336 -267 q 196 -285 257 -286 q 65 -262 110 -283 q 15 -218 28 -246 q 8 -172 4 -199 q 64 -96 18 -118 q 142 -94 106 -75 q 164 -117 158 -103 q 154 -199 183 -154 q 146 -210 150 -204 l 140 -217 l 147 -217 l 194 -219 q 272 -211 246 -219 q 374 -128 338 -190 q 383 -107 379 -118 l 424 50 l 413 42 q 346 10 378 19 q 279 0 315 0 q 246 4 247 4 q 113 106 153 24 q 85 224 85 160 q 92 292 85 261 q 244 542 121 443 q 253 547 249 544 q 401 611 325 603 m 443 546 q 331 506 386 558 q 256 354 286 464 q 240 299 249 331 q 217 154 215 197 q 226 108 218 125 q 271 69 243 78 q 326 69 296 63 q 385 99 357 78 q 444 157 419 124 l 454 169 l 490 310 l 525 450 l 522 460 q 443 546 500 535 z "},"h":{"ha":800,"x_min":60,"x_max":776,"o":"m 289 956 q 399 964 400 964 q 415 954 411 964 q 367 746 418 947 q 315 540 315 547 l 326 550 q 353 569 349 567 q 508 614 424 615 q 629 569 588 610 q 667 415 683 517 q 590 168 654 340 q 567 79 567 108 q 585 50 567 51 q 592 50 588 50 q 646 79 621 53 q 704 189 686 119 q 718 211 711 210 q 743 213 722 213 q 774 210 769 213 q 776 199 776 207 q 749 119 776 175 q 688 35 724 68 q 569 -15 633 -17 q 508 1 536 -14 q 479 22 489 11 q 460 49 467 35 q 447 104 446 75 q 458 164 447 132 q 517 329 500 274 q 539 510 556 458 q 485 549 528 549 q 289 414 368 549 l 279 400 l 235 218 q 185 28 189 38 q 138 -12 171 -1 q 93 -11 115 -18 q 67 14 76 -4 q 64 43 60 25 q 160 439 68 71 q 258 858 263 846 q 188 871 250 871 q 158 881 163 871 q 164 913 157 888 q 175 944 169 939 q 183 949 179 949 q 289 956 196 949 z "},"i":{"ha":479,"x_min":19,"x_max":428,"o":"m 322 915 q 375 911 350 922 q 408 847 413 893 q 406 835 407 840 q 336 764 390 782 q 331 763 333 764 q 263 779 290 751 q 256 860 231 813 q 322 915 275 904 m 199 611 q 249 613 218 615 q 350 525 329 597 q 350 464 357 496 l 288 294 q 224 124 225 131 q 222 54 207 69 q 238 51 226 51 q 257 53 253 51 q 349 176 317 74 q 353 189 351 182 q 367 211 360 210 q 392 213 371 213 q 421 210 418 213 q 424 186 428 204 q 340 38 397 94 q 261 -11 301 1 q 224 -14 247 -14 q 188 -11 199 -14 q 121 29 143 0 q 99 74 104 49 q 99 136 92 104 l 163 307 q 231 494 226 478 q 231 536 236 518 q 200 547 224 553 q 125 483 158 539 q 92 399 104 449 q 86 389 88 390 q 57 386 83 386 l 31 386 l 26 390 q 28 419 19 396 q 140 588 63 536 q 156 596 147 592 q 199 611 181 610 z "},"j":{"ha":572,"x_min":-19,"x_max":567,"o":"m 481 915 q 533 911 508 922 q 567 856 567 896 q 556 815 567 836 q 538 790 549 801 q 489 763 515 769 q 415 788 440 750 q 411 794 413 790 q 414 861 396 825 q 481 915 435 904 m 356 613 q 410 611 374 615 q 507 540 479 596 q 518 483 518 517 l 518 461 l 449 183 q 375 -107 383 -78 q 225 -258 333 -208 q 147 -282 188 -275 q 107 -283 138 -283 q 40 -269 68 -283 q 14 -251 25 -262 q -12 -175 -19 -218 q 42 -96 -4 -118 q 121 -94 86 -75 q 150 -150 153 -110 q 124 -212 147 -183 l 117 -219 l 125 -219 q 164 -206 144 -217 q 251 -90 225 -171 l 393 478 q 374 547 401 538 q 324 540 356 551 q 219 432 265 517 q 208 408 214 421 q 199 389 201 392 q 169 386 196 386 l 143 386 l 139 390 q 140 417 132 397 q 268 579 186 526 q 356 613 310 607 z "},"k":{"ha":724,"x_min":60,"x_max":703,"o":"m 290 956 q 399 964 401 964 q 415 954 411 964 q 347 668 417 949 l 276 388 l 283 392 q 396 485 322 415 q 469 553 442 529 q 615 614 546 617 q 651 604 638 613 q 692 549 681 589 q 694 472 700 515 q 635 382 682 406 q 561 379 596 364 q 531 450 521 399 q 557 501 536 478 q 617 531 585 526 q 625 532 625 531 q 615 546 625 536 q 554 540 600 557 q 506 514 533 533 q 403 425 471 492 q 338 364 360 383 q 335 357 331 358 q 353 354 339 357 q 425 329 401 342 q 504 257 482 303 q 514 206 514 238 q 510 164 514 183 q 501 100 501 129 q 511 58 501 68 q 547 53 522 47 q 575 71 563 57 q 631 201 604 100 q 651 213 633 211 q 665 213 656 213 q 694 210 692 213 q 694 176 703 204 q 635 50 674 101 q 553 -11 600 1 q 519 -14 543 -14 q 483 -11 494 -14 q 436 10 454 -3 q 378 111 386 43 q 382 165 375 139 q 382 222 389 201 q 272 296 363 276 l 256 299 l 222 168 q 185 28 188 33 q 138 -12 171 -1 q 93 -11 115 -18 q 67 14 76 -4 q 64 43 60 25 q 160 439 68 71 q 257 860 263 847 q 197 871 247 869 q 160 881 164 871 q 164 913 157 885 q 175 944 171 942 q 183 949 179 949 l 290 956 z "},"l":{"ha":414,"x_min":43,"x_max":378,"o":"m 249 956 q 360 964 363 964 q 376 954 372 964 q 276 540 378 949 l 172 121 q 171 97 171 115 q 188 53 171 61 q 250 96 224 38 q 278 179 261 117 q 292 211 286 208 q 318 213 294 213 q 349 210 344 213 q 351 199 351 207 q 331 124 351 181 q 293 47 308 71 q 219 -11 261 1 q 189 -14 210 -14 q 133 -6 156 -14 q 49 88 64 19 q 49 142 43 119 q 135 493 49 140 q 218 860 224 849 q 158 871 208 869 l 129 871 l 124 876 q 125 913 118 882 q 139 947 133 944 q 249 956 140 947 z "},"m":{"ha":1219,"x_min":21,"x_max":1196,"o":"m 164 613 q 221 611 189 615 q 324 525 300 593 l 326 517 l 342 531 q 390 571 368 557 q 543 614 460 615 q 664 569 622 610 q 699 513 686 549 l 700 504 l 718 522 q 775 571 746 553 q 928 614 844 615 q 1049 569 1007 610 q 1086 415 1103 517 q 1010 171 1072 335 q 986 79 986 106 q 1004 50 986 51 q 1011 50 1007 50 q 1065 79 1040 53 q 1124 189 1106 119 q 1138 211 1131 210 q 1163 213 1142 213 q 1193 210 1189 213 q 1196 199 1196 207 q 1157 99 1196 168 q 1149 85 1153 92 q 1039 -8 1103 14 q 928 1 982 -26 q 899 22 908 11 q 879 49 886 35 q 867 104 865 75 q 883 179 867 133 q 964 485 972 415 q 938 539 960 525 q 883 547 922 551 q 707 414 781 535 l 699 399 l 653 218 q 603 28 610 40 q 538 -15 583 -14 q 499 -3 515 -15 q 486 13 492 0 q 486 58 479 28 q 526 226 492 86 q 575 421 574 413 q 574 510 586 478 q 519 549 563 549 q 322 414 403 549 l 314 399 l 268 218 q 218 28 225 40 q 153 -15 199 -14 q 114 -3 131 -15 q 101 13 107 0 q 100 54 94 26 q 149 254 107 86 q 204 478 203 469 q 178 549 214 546 q 169 549 174 549 q 97 419 129 540 l 90 394 q 57 386 75 386 l 31 386 l 26 390 q 26 419 21 396 q 92 564 54 515 q 164 613 121 601 z "},"n":{"ha":833,"x_min":21,"x_max":811,"o":"m 164 611 q 221 611 185 617 q 324 525 300 592 l 326 517 l 342 531 q 390 571 368 557 q 543 614 460 615 q 664 569 622 610 q 701 415 718 517 q 625 171 688 335 q 601 79 601 106 q 611 51 601 57 q 646 54 622 46 q 733 169 700 75 q 739 189 736 179 q 753 211 746 210 q 778 213 757 213 q 808 210 804 213 q 811 199 811 207 q 783 119 811 175 q 722 35 758 68 q 604 -15 668 -17 q 493 50 525 -11 q 481 107 481 75 q 497 172 482 135 q 565 382 550 317 q 574 510 588 465 q 519 549 563 549 q 322 414 403 549 l 314 399 l 268 218 q 218 28 225 40 q 153 -15 199 -14 q 114 -3 131 -15 q 101 13 107 0 q 100 54 94 26 q 149 254 107 86 q 204 478 203 469 q 182 549 213 542 q 117 485 143 553 q 97 419 107 460 l 90 394 q 57 386 75 386 l 31 386 l 26 390 q 26 419 21 396 q 164 611 76 593 z "},"o":{"ha":674,"x_min":18,"x_max":700,"o":"m 393 611 q 489 607 442 618 q 644 486 597 583 q 639 238 700 375 q 614 189 628 213 q 394 6 535 57 q 321 -12 358 -7 q 247 -14 292 -18 q 240 -12 243 -12 q 107 51 161 0 q 47 163 61 99 q 103 419 18 288 q 228 547 153 497 q 393 611 310 603 m 440 547 q 336 526 386 554 q 221 379 257 483 q 183 239 197 315 q 218 71 158 115 q 226 65 222 68 q 265 53 244 54 q 411 99 342 39 q 439 126 426 111 q 507 283 481 176 q 511 299 510 290 q 533 429 533 386 q 525 483 533 464 q 483 532 514 514 q 440 547 465 544 z "},"p":{"ha":699,"x_min":-61,"x_max":707,"o":"m 167 613 q 224 611 192 615 q 318 544 290 596 l 324 533 l 336 544 q 461 611 393 596 q 536 610 501 617 q 633 558 594 597 q 683 474 668 524 q 690 322 707 404 q 547 71 663 171 q 506 39 526 53 q 425 -1 463 11 q 349 -14 386 -14 q 315 -12 321 -14 q 236 32 265 -1 q 228 39 228 40 l 172 -183 q 176 -187 172 -187 q 243 -192 189 -192 q 272 -194 269 -192 q 281 -207 281 -197 l 267 -261 q 240 -268 261 -269 q 219 -268 235 -268 q -40 -269 43 -262 l -51 -269 l -56 -265 q -61 -256 -61 -260 l -47 -201 l -47 -200 q -8 -192 -37 -192 q 39 -183 32 -190 q 124 142 43 -179 q 207 479 204 464 q 181 549 217 546 q 172 549 176 549 q 99 413 131 540 q 93 394 93 396 q 60 386 78 386 l 33 386 l 29 390 q 29 419 24 396 q 94 565 56 517 q 167 613 125 603 m 511 544 q 465 546 492 551 q 340 458 401 535 l 328 443 l 292 297 q 256 150 256 151 q 274 100 256 136 q 315 60 289 74 q 446 92 378 28 q 522 236 492 133 q 556 376 546 325 q 558 499 574 460 q 511 544 544 533 z "},"q":{"ha":619,"x_min":35,"x_max":647,"o":"m 369 613 q 394 614 371 614 q 429 610 419 611 q 504 563 475 596 l 513 551 l 522 560 q 567 589 539 576 q 632 614 617 614 q 646 604 642 614 q 550 208 647 599 q 453 -185 453 -175 q 457 -187 453 -187 q 525 -192 469 -192 q 560 -201 554 -192 q 556 -233 561 -207 q 543 -265 549 -260 l 539 -269 l 521 -269 q 236 -268 393 -262 q 192 -260 197 -269 q 196 -228 190 -256 q 207 -196 204 -200 l 213 -192 l 251 -192 q 322 -179 313 -190 q 351 -72 324 -176 q 378 33 376 32 q 365 28 378 36 q 188 -8 278 -32 q 131 17 157 0 q 40 182 51 72 q 42 263 35 219 q 138 476 60 379 q 196 535 164 508 q 356 611 275 600 q 369 613 361 613 m 410 544 q 364 547 382 551 q 281 499 321 539 q 210 346 240 456 q 194 288 203 321 q 171 147 171 193 q 189 79 171 104 q 289 57 222 35 q 399 144 346 76 l 408 157 l 444 303 l 481 449 l 478 460 q 410 544 458 528 z "},"r":{"ha":626,"x_min":21,"x_max":599,"o":"m 164 613 q 221 611 189 615 q 314 547 286 596 l 318 540 l 326 550 q 388 594 356 579 q 468 613 424 613 q 503 610 493 613 q 551 586 528 603 q 593 481 599 547 q 593 474 593 476 q 535 382 585 406 q 461 379 496 364 q 431 450 421 399 q 457 501 436 478 q 497 525 475 518 l 507 529 l 503 533 q 422 542 471 560 q 333 451 374 522 l 322 435 l 274 236 q 218 28 222 36 q 153 -15 199 -14 q 114 -3 131 -15 q 101 13 107 0 q 100 54 94 26 q 149 254 107 86 q 204 478 203 469 q 178 549 214 546 q 169 549 174 549 q 96 413 128 540 q 90 394 90 396 q 57 386 75 386 l 31 386 l 26 390 q 26 419 21 396 q 92 565 53 517 q 164 613 122 603 z "},"s":{"ha":651,"x_min":72,"x_max":586,"o":"m 388 613 q 461 611 419 615 q 558 560 529 597 q 579 519 572 544 q 579 467 586 494 q 515 401 567 414 q 482 401 499 397 q 447 426 458 406 q 442 447 443 433 q 451 489 442 469 q 482 522 460 508 l 490 528 l 483 532 q 381 546 439 557 q 365 542 372 544 q 314 503 332 532 q 311 414 276 447 q 318 408 314 411 q 381 388 332 399 q 435 375 425 379 q 539 285 513 351 q 550 226 550 261 q 549 192 550 200 q 504 92 536 135 q 258 -15 425 -19 q 90 60 136 -11 q 83 72 86 65 q 74 119 74 92 q 85 174 72 147 q 103 200 96 192 q 199 224 147 243 q 204 221 201 222 q 236 178 232 208 q 204 97 243 132 q 185 83 196 89 q 174 76 175 78 q 210 60 178 69 q 279 51 238 51 q 346 60 321 51 q 415 113 392 74 q 429 193 447 158 q 382 233 415 222 q 331 246 372 238 q 256 267 282 256 q 183 357 200 297 q 181 392 181 368 q 190 454 179 417 q 236 538 206 500 q 388 613 289 600 z "},"t":{"ha":501,"x_min":22,"x_max":461,"o":"m 299 868 q 338 865 319 874 q 365 839 358 858 q 357 769 371 822 q 342 707 353 751 q 315 601 317 603 q 382 599 315 599 l 449 599 l 453 594 q 453 558 461 589 q 444 529 449 538 q 417 521 440 522 q 365 521 406 521 l 296 521 l 294 515 q 246 322 294 511 q 197 119 201 144 q 199 69 192 89 q 244 51 208 46 q 351 136 304 64 q 382 194 375 172 q 397 211 389 210 q 421 213 403 213 q 451 210 447 213 q 447 176 460 201 q 361 51 413 101 q 303 8 332 22 q 254 -11 281 -4 q 215 -14 242 -14 q 174 -10 189 -14 q 96 38 124 3 q 74 89 78 63 q 71 121 71 100 l 72 140 l 119 329 q 167 519 167 515 q 100 521 167 521 q 25 531 31 521 q 28 561 22 535 q 38 590 36 589 q 65 599 42 597 q 117 599 76 599 l 188 599 l 214 708 q 253 838 243 826 q 261 846 256 840 q 299 868 276 861 z "},"u":{"ha":794,"x_min":19,"x_max":776,"o":"m 203 613 q 261 610 224 617 q 351 524 336 590 q 354 490 356 507 q 332 410 353 465 q 265 201 281 274 q 271 88 253 128 q 310 54 283 61 q 393 65 343 40 q 463 135 433 88 q 517 343 467 140 q 574 557 569 550 q 640 599 596 597 q 678 586 663 599 q 690 571 685 583 q 692 528 697 556 q 644 336 685 496 q 592 119 594 136 q 593 71 589 83 q 617 50 599 53 q 643 58 633 50 q 700 182 672 79 q 713 211 706 208 q 739 213 718 213 q 768 210 765 213 q 768 178 776 204 q 711 44 744 90 q 657 -4 689 11 q 601 -15 635 -15 q 482 51 519 -11 l 478 58 l 472 53 q 406 4 446 25 q 331 -15 368 -14 q 190 25 243 -18 q 136 178 128 75 q 201 407 142 246 q 204 417 203 413 q 225 475 224 465 q 229 540 242 522 q 207 549 224 549 q 108 449 149 543 q 96 413 101 432 q 90 394 90 396 q 57 386 75 386 l 31 386 l 26 390 q 28 419 19 396 q 53 483 39 457 q 203 613 110 596 z "},"v":{"ha":674,"x_min":19,"x_max":646,"o":"m 556 613 q 600 607 578 618 q 643 549 631 594 q 646 506 646 535 q 636 415 646 467 q 588 239 615 313 q 379 -11 504 21 q 249 -1 321 -25 q 168 53 196 15 q 142 224 121 118 q 204 419 150 278 q 232 525 233 497 q 214 549 231 547 q 206 549 210 549 q 142 507 171 544 q 113 457 124 488 q 92 399 99 431 q 86 389 88 390 q 57 386 83 386 l 31 386 l 26 390 q 28 419 19 396 q 108 563 54 508 q 161 599 133 586 q 225 613 190 614 q 260 610 249 613 q 350 525 331 590 q 350 465 356 501 q 329 408 347 456 q 265 204 275 260 q 263 156 263 189 q 265 115 263 125 q 306 61 276 75 q 351 51 322 51 q 383 56 371 51 q 540 308 479 89 q 553 379 553 353 q 543 431 553 407 q 500 482 528 460 q 486 500 492 489 q 481 522 482 507 q 490 561 481 543 q 556 613 511 603 z "},"w":{"ha":994,"x_min":21,"x_max":961,"o":"m 865 614 q 901 611 889 617 q 957 493 961 590 q 932 354 956 451 q 858 135 897 218 q 742 1 808 33 q 656 -15 704 -17 q 525 25 574 -11 q 494 56 503 42 q 492 60 493 58 l 483 51 q 442 13 467 29 q 392 -11 417 -4 q 349 -14 379 -14 q 271 -6 301 -14 q 139 132 158 24 q 142 219 133 174 q 203 413 153 281 q 225 475 222 461 q 229 540 242 522 q 207 549 224 549 q 108 449 149 543 q 96 413 101 432 q 90 394 90 396 q 57 386 75 386 l 31 386 l 26 390 q 26 417 21 396 q 50 478 35 442 q 189 610 104 586 q 225 613 201 613 q 261 610 250 613 q 353 518 340 588 q 354 490 354 504 q 332 410 353 465 q 268 208 279 271 q 332 54 246 78 q 388 54 361 46 q 460 129 429 69 l 464 139 l 464 157 q 469 221 464 192 l 511 390 q 556 557 549 539 q 622 599 578 597 q 660 586 644 599 q 672 571 667 583 q 672 524 679 556 q 638 381 667 496 q 594 204 597 219 q 592 156 592 188 q 601 96 592 115 q 686 50 624 47 q 719 58 701 51 q 822 211 779 86 q 863 364 854 306 q 817 476 871 426 q 797 499 803 488 q 790 521 792 508 q 799 560 790 542 q 865 614 819 603 z "},"x":{"ha":794,"x_min":49,"x_max":736,"o":"m 278 613 q 347 610 311 618 q 450 546 417 594 q 458 538 456 538 l 467 549 q 546 606 500 588 q 651 601 599 625 q 708 546 692 581 q 710 429 736 490 q 682 393 699 406 q 588 379 632 357 q 574 389 579 383 q 557 442 553 410 q 621 524 565 504 l 632 528 l 626 533 q 565 546 601 556 q 560 544 563 546 q 493 464 518 529 q 419 171 479 429 q 413 142 413 147 q 414 83 406 99 q 449 54 425 63 q 478 51 456 51 q 508 54 499 51 q 581 99 544 65 q 638 196 624 143 q 649 211 642 210 q 674 213 654 213 q 704 210 700 213 q 707 200 707 207 q 671 113 707 171 q 667 106 669 108 q 501 -12 604 10 q 429 -12 469 -18 q 324 50 358 3 l 315 63 l 311 58 q 189 -15 257 -11 q 71 43 110 -19 q 58 68 63 54 q 53 133 49 99 q 108 215 63 193 q 188 217 153 236 q 217 161 219 201 q 165 81 213 106 q 146 72 158 76 l 140 71 l 144 67 q 189 51 164 51 q 226 61 207 50 q 281 138 263 86 l 357 443 q 360 513 367 493 q 324 544 353 535 q 267 544 296 553 q 196 503 226 533 q 138 410 156 461 q 129 389 133 393 q 100 386 126 386 l 74 386 l 69 390 q 65 401 65 394 q 82 449 69 422 q 114 504 94 478 q 175 567 136 538 q 179 569 176 568 q 278 613 225 601 z "},"y":{"ha":681,"x_min":19,"x_max":697,"o":"m 196 611 q 261 610 224 618 q 351 525 332 590 q 351 465 357 501 q 331 408 349 456 q 265 201 281 274 q 282 72 250 108 q 349 51 306 44 q 458 126 411 60 l 467 139 l 517 343 q 574 557 569 550 q 640 599 596 597 q 678 586 663 599 q 690 571 685 583 q 693 536 697 557 q 626 263 689 515 q 551 -31 549 -40 q 510 -112 538 -75 q 304 -271 432 -231 q 185 -283 243 -292 q 54 -189 81 -268 q 56 -132 49 -158 q 90 -76 64 -97 q 185 -62 140 -40 q 210 -89 201 -72 q 204 -161 225 -122 q 167 -200 190 -187 l 158 -206 l 165 -208 q 279 -208 219 -232 q 404 -74 354 -178 q 422 -29 414 -51 q 436 21 439 19 q 426 15 435 21 q 382 -6 406 3 q 225 4 306 -32 q 190 25 206 13 q 136 178 128 75 q 201 407 142 246 q 204 417 203 413 q 225 475 224 465 q 229 540 242 522 q 207 549 224 549 q 108 447 147 543 q 96 411 101 431 q 85 388 89 389 q 56 386 83 386 l 31 386 l 26 390 q 28 419 19 396 q 108 560 54 508 q 196 611 147 600 z "},"z":{"ha":646,"x_min":39,"x_max":653,"o":"m 321 613 q 369 611 346 615 q 435 569 394 604 q 460 547 449 556 q 522 529 494 519 q 578 599 542 538 q 589 613 585 611 q 617 614 590 614 l 642 614 l 646 610 q 642 585 653 603 q 635 571 640 581 q 594 513 614 535 l 576 490 q 360 275 517 418 q 244 164 283 204 l 219 139 l 236 138 q 318 125 264 136 q 436 115 401 108 q 529 158 494 124 q 553 197 544 176 q 569 213 558 211 q 589 213 574 213 q 617 210 613 213 q 621 186 626 204 q 532 46 596 103 q 393 -15 467 -11 q 340 -4 361 -15 q 286 36 324 3 q 258 58 274 47 q 186 67 221 82 q 113 -4 142 47 q 104 -14 110 -8 q 75 -15 101 -15 l 50 -15 l 46 -11 q 50 15 39 -4 q 53 21 51 18 q 275 272 114 122 q 300 296 286 283 q 436 424 394 382 q 474 463 474 461 l 458 465 q 410 474 449 465 q 326 486 358 485 q 246 475 272 489 q 225 453 228 465 q 219 444 221 446 q 192 440 215 440 q 157 446 161 440 q 160 471 154 451 q 186 524 168 494 q 236 576 204 550 q 321 613 275 606 z "},"{":{"ha":447,"x_min":19,"x_max":428,"o":"m 199 611 q 249 613 218 615 q 350 525 329 597 q 350 464 357 496 l 288 294 q 224 124 225 131 q 222 54 207 69 q 238 51 226 51 q 257 53 253 51 q 349 176 317 74 q 353 189 351 182 q 367 211 360 210 q 392 213 371 213 q 421 210 418 213 q 424 186 428 204 q 340 38 397 94 q 261 -11 301 1 q 224 -14 247 -14 q 188 -11 199 -14 q 121 29 143 0 q 99 74 104 49 q 99 136 92 104 l 163 307 q 231 494 226 478 q 231 536 236 518 q 200 547 224 553 q 125 483 158 539 q 92 399 104 449 q 86 389 88 390 q 57 386 83 386 l 31 386 l 26 390 q 28 419 19 396 q 140 588 63 536 q 156 596 147 592 q 199 611 181 610 z "},"|":{"ha":533,"x_min":-19,"x_max":518,"o":"m 356 613 q 410 611 374 615 q 507 540 479 596 q 518 483 518 517 l 518 461 l 450 188 q 378 -96 381 -90 q 353 -150 371 -122 q 261 -242 318 -204 q 111 -285 186 -287 q 24 -257 60 -283 q -12 -175 -19 -228 q 18 -112 -8 -139 q 42 -96 28 -103 q 121 -94 86 -75 q 150 -150 153 -110 q 124 -211 147 -185 l 117 -219 l 125 -219 q 219 -157 178 -219 q 249 -97 236 -132 q 382 431 265 -51 q 393 478 393 474 q 371 549 401 542 q 311 535 340 551 q 210 408 247 500 q 199 389 199 390 q 169 386 196 386 l 143 386 l 139 390 q 142 418 132 397 q 283 588 189 536 q 290 592 286 590 q 356 613 325 610 z "},"}":{"ha":883,"x_min":85,"x_max":878,"o":"m 326 626 q 343 629 335 629 q 356 625 351 629 q 360 617 360 621 l 346 569 l 346 568 q 336 564 344 564 q 307 549 325 563 q 246 447 272 514 q 211 313 221 381 q 210 256 204 275 q 213 257 210 254 q 215 263 214 260 q 293 368 249 317 q 407 474 350 433 q 686 569 546 574 q 831 496 781 565 q 872 394 863 453 q 874 317 878 367 q 872 308 872 311 q 731 61 847 158 q 715 49 724 54 q 535 -15 625 -18 q 422 75 446 -11 q 418 107 421 79 q 421 144 418 132 q 456 193 429 182 q 479 199 467 199 q 510 186 499 199 q 519 157 519 176 q 494 113 517 128 q 492 94 486 110 q 507 67 496 78 q 561 51 526 47 q 694 153 644 61 q 708 183 703 168 q 756 361 739 260 q 757 376 757 369 q 754 439 763 414 q 667 504 736 504 q 561 486 615 504 q 378 368 465 453 q 258 210 314 304 l 246 188 l 251 179 q 369 25 360 42 q 385 -40 383 -6 q 378 -104 385 -72 q 317 -233 363 -175 q 226 -296 272 -283 q 168 -297 199 -303 q 131 -279 147 -290 q 85 -183 93 -251 l 85 -108 q 132 90 94 -8 q 139 119 140 115 q 119 163 125 140 q 111 233 111 193 q 128 357 111 289 q 214 542 156 464 q 264 596 231 567 q 326 626 294 619 m 238 -8 q 192 49 193 47 l 189 53 l 185 36 q 151 -106 163 -26 q 151 -190 146 -151 q 204 -233 163 -233 q 224 -229 217 -233 q 281 -131 264 -204 q 282 -69 288 -96 q 238 -8 278 -61 z "},"~":{"ha":694,"x_min":243,"x_max":867,"o":"m 754 990 q 781 985 771 994 q 794 958 788 979 q 851 879 808 907 q 867 854 867 869 q 864 840 867 844 q 843 825 858 833 q 739 738 783 794 q 719 719 725 722 q 683 733 694 710 q 701 782 676 750 q 736 818 714 796 l 746 826 l 508 826 l 271 828 l 265 832 q 257 868 243 847 q 265 876 260 872 l 271 882 l 519 882 l 769 882 l 763 893 q 736 964 736 935 q 754 990 736 983 z "},"":{"ha":608,"x_min":61,"x_max":654,"o":"m 454 985 q 488 971 478 989 q 488 938 492 960 q 478 858 475 883 l 479 851 l 493 856 q 535 860 501 858 q 629 847 604 863 q 650 828 644 840 q 654 808 654 819 q 597 751 651 764 q 532 744 574 746 q 488 746 497 744 q 450 763 468 750 q 435 763 443 768 q 429 758 432 761 q 239 518 319 679 q 194 406 211 461 q 183 185 156 268 q 268 93 206 124 q 367 58 283 86 q 464 24 429 38 q 543 -69 526 -7 q 546 -104 546 -81 q 543 -139 546 -129 q 492 -236 529 -197 q 443 -271 471 -257 q 382 -283 417 -283 q 321 -276 346 -283 q 258 -253 293 -269 q 232 -233 235 -242 q 232 -210 226 -224 q 268 -187 244 -187 q 293 -196 278 -187 q 371 -218 335 -215 q 424 -204 408 -222 q 439 -175 435 -193 q 394 -96 447 -124 q 307 -64 396 -96 q 193 -22 213 -32 q 92 76 125 13 q 61 215 61 133 q 89 393 61 301 q 217 638 128 518 q 367 790 288 733 q 414 822 401 818 q 413 835 415 822 q 413 907 408 878 q 432 972 419 960 q 454 985 439 982 z "},"":{"ha":750,"x_min":19,"x_max":728,"o":"m 633 613 q 678 608 656 618 q 725 496 728 582 q 700 356 724 444 q 650 213 678 271 q 447 -3 567 42 q 440 -6 444 -4 q 372 -14 410 -15 q 211 26 269 -14 q 168 68 183 43 q 140 136 150 94 q 140 214 135 172 q 204 417 150 268 q 225 475 224 465 q 229 540 242 522 q 207 549 224 549 q 108 449 149 543 q 96 413 101 432 q 90 394 90 396 q 57 386 75 386 l 31 386 l 26 390 q 28 419 19 396 q 53 483 39 457 q 189 610 107 586 q 225 613 201 613 q 261 610 250 613 q 353 513 343 588 q 354 490 354 501 q 332 410 353 469 q 265 186 271 246 q 324 63 257 93 q 421 54 371 42 q 578 211 510 78 q 611 292 596 249 q 631 392 635 357 q 579 481 625 443 q 569 563 540 514 q 578 576 572 569 q 633 613 600 606 z "},"":{"ha":828,"x_min":51,"x_max":815,"o":"m 567 963 q 596 964 569 964 l 621 964 l 625 960 q 629 951 629 956 l 590 790 l 550 632 l 569 629 q 754 532 689 611 q 808 421 793 488 q 811 333 815 378 q 729 150 799 239 q 663 82 697 108 q 464 -19 575 8 q 394 -33 440 -25 l 383 -33 l 353 -156 q 319 -281 324 -276 l 315 -285 l 290 -285 q 256 -276 258 -285 q 283 -153 254 -274 l 314 -33 l 310 -33 q 290 -29 307 -32 q 260 -24 276 -29 q 67 142 113 14 q 60 163 63 151 q 51 231 51 196 q 69 335 51 282 q 131 443 94 399 q 388 617 228 571 q 460 631 424 626 l 481 632 l 519 793 q 561 957 561 956 l 567 963 m 558 563 q 539 565 544 565 l 533 567 l 467 300 l 400 33 l 407 33 q 531 81 478 43 q 576 117 556 94 q 671 286 642 179 q 681 461 701 397 q 558 563 657 543 m 463 564 q 438 561 463 567 q 217 379 283 529 q 175 179 169 272 q 218 79 179 118 q 282 42 247 54 q 331 32 329 31 l 463 564 z "},"":{"ha":686,"x_min":56,"x_max":749,"o":"m 201 606 q 311 614 313 614 q 328 604 324 614 q 267 344 329 600 q 201 88 201 90 q 260 113 201 81 q 265 115 263 114 q 531 364 428 196 q 565 426 550 394 q 610 542 593 479 q 635 592 619 576 q 710 610 669 625 q 728 599 721 606 q 735 529 749 578 q 728 504 732 518 q 643 338 699 415 q 383 101 543 196 q 272 46 340 76 q 136 4 211 21 q 110 4 114 -1 l 106 10 l 89 4 q 60 4 67 -1 q 56 14 56 11 q 114 250 56 19 q 169 510 175 499 q 110 521 160 519 q 72 531 76 521 q 76 563 69 535 q 88 594 83 590 q 96 599 92 599 q 201 606 108 599 z "},"":{"ha":854,"x_min":36,"x_max":1001,"o":"m 271 940 l 275 944 l 633 944 l 992 944 l 997 940 q 1001 929 1001 935 l 961 613 q 956 601 961 606 l 951 597 l 928 597 q 899 600 903 597 q 894 633 892 604 q 894 640 894 636 q 893 797 908 751 q 786 864 876 851 q 663 865 769 865 q 542 857 549 865 q 363 143 533 846 q 349 86 349 88 q 451 78 357 79 l 510 78 l 514 72 q 518 63 518 68 q 504 8 518 40 q 476 1 500 0 q 438 1 467 1 q 122 3 308 7 q 93 1 104 1 q 38 10 43 0 q 42 42 36 14 q 53 74 50 69 l 58 78 l 106 78 q 193 89 183 79 q 293 475 197 92 q 388 860 389 858 q 378 863 385 863 q 296 867 361 867 q 254 876 260 867 q 258 908 253 882 q 271 940 265 935 z "},"":{"ha":1157,"x_min":67,"x_max":1094,"o":"m 790 993 q 826 994 793 994 q 869 986 863 994 q 983 497 872 981 q 1093 8 1094 13 q 1088 3 1089 4 q 578 0 1083 0 q 69 3 72 0 q 67 8 67 6 q 421 497 67 13 q 779 986 776 985 q 790 993 783 992 m 822 475 q 743 818 743 817 l 492 478 l 242 135 l 571 133 q 900 135 900 133 l 822 475 z "},"":{"ha":1060,"x_min":65,"x_max":1051,"o":"m 638 978 q 728 976 672 981 q 925 879 847 960 q 1021 683 1001 803 q 950 317 1051 503 q 907 249 931 282 q 715 64 828 135 q 567 -7 640 15 q 229 22 374 -67 q 175 64 200 40 q 71 279 92 146 q 69 392 65 324 q 71 401 71 397 q 232 751 96 592 q 315 835 271 796 q 638 978 469 963 m 688 913 q 456 835 572 928 q 421 804 438 821 q 340 704 372 757 q 293 615 318 672 q 222 335 233 476 q 224 239 217 288 q 371 46 247 85 q 396 40 383 43 q 481 39 433 33 q 739 215 631 65 q 769 263 756 238 q 813 351 793 306 q 872 589 857 464 q 874 694 878 635 q 872 703 872 700 q 804 854 858 803 q 688 913 758 901 m 356 586 q 385 589 360 589 l 408 589 l 414 585 q 418 575 418 579 q 411 544 418 561 q 565 542 411 542 l 719 542 l 721 547 l 725 564 q 739 588 729 586 q 764 589 744 589 l 788 589 l 793 585 q 797 575 797 579 l 747 371 q 713 361 743 361 l 689 361 l 683 365 q 679 375 679 371 q 686 406 679 389 q 532 408 686 408 l 378 408 l 376 403 l 372 386 q 358 363 368 364 q 333 361 353 361 l 310 361 l 304 365 q 300 375 300 372 l 350 579 q 356 586 351 582 z "},"":{"ha":964,"x_min":47,"x_max":935,"o":"m 696 992 q 731 994 700 994 q 768 988 764 994 q 796 536 771 983 q 822 86 819 88 q 829 82 824 85 q 899 78 854 78 q 933 68 929 78 q 928 36 935 61 q 917 4 922 10 l 913 0 l 894 0 q 578 1 768 7 q 528 8 533 0 q 531 40 525 13 q 543 75 538 69 q 568 78 547 78 q 638 83 601 78 q 663 93 663 89 l 628 736 l 290 126 l 290 125 q 296 97 283 108 q 361 78 318 78 q 379 68 375 78 q 375 36 382 64 q 364 4 369 10 l 360 0 l 340 0 q 85 1 206 7 q 49 10 54 0 q 54 42 47 14 q 64 74 61 68 l 69 78 l 89 78 q 214 139 176 82 q 451 567 219 147 q 686 986 688 988 q 696 992 690 989 z "},"":{"ha":1031,"x_min":74,"x_max":1081,"o":"m 314 936 l 318 940 l 693 940 q 1078 932 1071 940 q 1060 819 1081 926 l 1038 710 q 1003 700 1033 700 l 979 700 l 974 706 q 969 718 969 710 q 974 744 969 719 q 982 806 982 782 l 982 815 l 974 815 q 672 819 936 819 q 351 813 360 819 q 325 750 342 799 q 307 703 311 706 q 278 700 303 700 l 254 700 l 249 704 q 244 714 244 711 l 308 928 q 314 936 308 933 m 350 617 l 354 621 l 379 621 l 404 621 l 410 617 q 414 607 414 611 q 407 578 414 601 q 401 551 401 550 q 600 550 401 550 l 800 550 l 807 582 q 819 617 815 614 l 824 621 l 849 621 l 874 621 l 879 617 q 883 607 883 611 q 824 365 883 604 q 790 358 818 358 q 761 363 765 358 q 760 393 754 368 q 763 401 761 396 l 769 429 l 569 429 l 371 429 l 363 400 q 354 367 358 375 q 321 358 351 358 q 292 363 296 358 l 286 369 q 315 494 286 372 q 350 617 346 614 m 125 253 q 154 256 129 256 l 178 256 l 183 250 q 188 238 188 246 l 182 204 q 172 135 172 150 l 172 126 l 176 126 q 464 121 196 122 q 814 129 800 121 q 849 217 825 136 l 860 249 q 893 256 864 256 l 917 256 l 922 251 q 926 242 926 246 l 858 10 q 853 3 857 7 q 465 0 849 0 l 83 0 l 78 4 q 74 15 74 11 l 119 246 q 125 253 121 249 z "},"":{"ha":1154,"x_min":36,"x_max":1240,"o":"m 271 940 l 275 944 l 751 944 q 1233 942 1229 944 q 1239 935 1238 938 q 1235 903 1240 929 q 1224 871 1226 875 l 1219 867 l 1171 867 q 1083 856 1093 865 q 983 469 1079 853 q 889 85 888 86 q 899 82 892 82 q 982 78 915 78 q 1022 68 1017 78 q 1018 36 1024 63 q 1006 4 1011 10 l 1001 0 l 979 0 q 629 1 828 7 q 578 10 583 0 q 582 42 576 14 q 593 74 590 69 l 599 78 l 646 78 q 733 89 724 79 q 835 478 738 92 q 931 865 931 864 q 736 867 931 867 l 542 867 l 446 478 q 347 88 347 89 q 351 83 346 85 q 367 81 357 82 l 425 78 q 482 68 476 78 q 478 36 483 64 q 465 4 471 10 l 461 0 l 439 0 q 89 1 288 7 q 38 10 43 0 q 42 42 36 14 q 53 74 50 69 l 58 78 l 106 78 q 193 89 183 79 q 293 475 197 92 q 388 860 389 858 q 378 863 385 863 q 296 867 361 867 q 254 876 260 867 q 258 908 253 882 q 271 940 265 935 z "},"":{"ha":1083,"x_min":81,"x_max":1119,"o":"m 318 946 q 715 949 321 949 l 1110 949 l 1114 944 q 1119 936 1115 943 l 1078 611 q 1072 604 1078 607 q 1044 601 1069 601 l 1019 601 l 1015 606 q 1011 618 1011 610 q 1013 650 1011 636 q 1014 751 1019 706 q 956 844 1003 819 q 814 869 907 865 l 488 871 l 586 674 l 683 475 l 682 469 l 682 468 q 474 279 651 438 l 267 93 l 421 92 q 701 101 642 92 q 788 126 750 110 q 879 214 833 150 q 940 346 908 257 q 956 361 946 360 q 978 361 961 361 l 1001 361 l 1007 357 q 1011 347 1011 350 l 888 7 q 853 1 885 1 q 483 0 810 0 l 90 0 l 85 4 q 81 14 81 11 q 82 22 81 21 q 306 225 101 42 q 526 425 525 424 q 411 656 525 425 l 297 885 l 303 911 q 318 946 313 943 z "},"":{"ha":810,"x_min":36,"x_max":974,"o":"m 263 978 q 333 975 297 983 q 476 778 460 947 q 479 689 482 742 q 478 664 479 675 l 488 683 q 650 914 556 838 q 822 979 731 979 q 956 899 917 979 q 972 810 974 860 q 960 751 969 761 q 918 743 951 743 q 890 747 894 743 q 888 757 888 750 l 888 781 q 883 806 888 796 q 818 850 867 839 q 761 849 794 854 q 533 571 621 826 q 510 486 521 533 q 458 279 496 438 q 411 86 411 92 q 513 78 419 79 q 574 75 568 78 q 579 68 579 75 q 575 36 582 64 q 564 4 567 7 l 560 0 l 535 0 q 122 1 360 7 q 65 10 71 0 q 69 42 63 14 q 81 74 76 71 l 85 78 l 143 78 q 257 92 246 79 q 308 288 261 96 l 361 494 q 383 625 376 560 q 385 722 389 671 q 383 729 383 726 q 296 847 367 828 q 260 851 281 851 q 204 843 231 851 q 119 769 138 819 l 115 757 q 99 743 111 746 l 68 743 q 42 747 46 743 q 44 779 36 753 q 129 910 69 857 q 263 978 192 965 z "},"":{"ha":926,"x_min":35,"x_max":919,"o":"m 335 944 l 339 949 l 360 949 q 681 946 501 943 l 800 949 l 817 949 l 821 944 q 822 913 828 938 q 821 907 822 910 q 808 874 814 876 q 765 871 804 871 q 658 867 683 871 q 631 856 636 864 l 599 726 q 619 724 601 724 q 850 617 774 703 q 879 571 869 594 q 833 381 919 476 q 824 369 829 375 q 767 324 792 340 q 488 225 646 243 l 472 222 l 454 156 q 439 86 439 89 q 540 78 447 79 q 601 75 596 78 q 607 68 607 75 q 603 36 610 64 q 592 4 594 7 l 588 0 l 563 0 q 158 1 386 7 q 101 10 107 0 q 106 42 99 14 q 117 74 113 71 l 121 78 l 179 78 q 281 85 264 79 q 297 99 293 88 q 313 158 300 107 q 326 222 328 221 l 311 225 q 239 239 278 229 q 49 372 94 278 q 38 400 42 386 q 35 436 35 411 q 46 497 35 471 q 154 622 71 564 q 431 724 271 703 q 453 726 432 724 l 488 860 q 386 871 486 869 q 318 881 324 871 q 322 913 317 885 q 335 944 329 939 m 438 660 q 417 658 438 661 q 318 628 361 650 q 264 592 288 614 q 204 476 222 549 q 211 347 181 392 q 300 296 236 311 q 344 289 342 286 l 438 660 m 611 656 q 586 660 594 660 l 581 661 l 535 474 l 488 288 l 493 289 q 603 318 557 296 q 714 450 682 356 q 715 597 747 546 q 611 656 689 642 z "},"":{"ha":850,"x_min":24,"x_max":960,"o":"m 303 944 l 307 949 l 328 949 q 650 946 469 943 l 768 949 l 785 949 l 789 944 q 790 913 796 938 q 789 907 790 910 q 776 874 782 876 q 733 871 772 871 q 626 867 651 871 q 599 856 604 864 l 458 296 q 515 317 465 292 q 663 483 608 365 q 693 572 678 515 q 794 743 729 713 q 885 751 822 751 q 957 742 951 751 q 954 717 960 738 q 939 688 949 690 q 932 686 936 686 q 900 675 913 683 q 835 568 857 649 q 785 442 814 492 q 653 299 733 351 q 449 224 567 240 l 440 224 l 422 156 q 407 86 407 89 q 508 78 415 79 q 569 75 564 78 q 575 68 575 75 q 571 36 578 64 q 560 4 563 7 l 556 0 l 532 0 q 126 1 358 7 q 69 10 75 0 q 74 42 67 14 q 85 74 81 71 l 89 78 l 147 78 q 249 85 232 79 q 265 100 261 88 q 281 160 268 108 q 294 224 296 224 q 274 228 292 225 q 86 353 139 250 q 74 569 42 439 q 81 624 81 600 q 53 685 81 675 l 42 686 l 40 686 q 25 696 31 686 q 28 719 24 701 q 42 749 35 746 q 106 751 49 751 q 193 743 178 751 q 218 717 211 735 q 229 665 228 700 q 218 578 229 624 q 201 458 201 501 q 204 417 201 429 q 299 299 221 326 q 314 294 314 293 l 456 861 q 356 871 451 869 q 286 881 292 871 q 290 913 285 885 q 303 944 297 939 z "},"":{"ha":1072,"x_min":111,"x_max":1129,"o":"m 707 978 l 797 976 q 1008 886 929 960 q 1079 775 1057 842 q 974 424 1129 624 q 889 321 950 393 q 781 192 815 238 q 736 126 747 146 l 733 119 l 788 119 q 868 128 851 121 q 881 140 874 129 q 924 228 894 163 q 936 250 933 247 l 940 254 l 965 254 l 990 254 l 994 250 q 996 229 1001 244 q 947 121 993 219 q 892 3 896 4 q 760 0 888 0 l 633 0 l 628 4 q 624 15 624 11 q 656 113 624 40 q 778 344 688 190 q 906 604 878 514 q 875 864 960 782 q 683 910 804 931 q 576 871 628 900 q 386 496 394 765 q 386 457 386 476 q 394 332 389 396 q 403 210 401 256 q 394 54 407 122 q 383 8 388 14 q 358 0 381 1 q 247 0 339 0 l 121 0 l 115 4 q 111 18 111 10 l 122 244 l 126 251 q 156 254 131 254 l 181 254 l 185 250 q 189 217 190 246 q 189 181 189 208 l 189 133 l 190 126 l 197 125 q 283 119 214 119 l 331 119 l 331 124 l 328 139 q 315 207 325 165 q 276 322 310 231 q 239 439 246 410 q 307 776 189 631 q 378 847 338 814 q 569 951 467 919 q 707 978 636 974 z "},"":{"ha":889,"x_min":18,"x_max":840,"o":"m 393 611 q 596 551 517 626 q 681 347 674 478 l 681 324 l 688 335 q 732 424 703 361 q 764 519 751 472 q 778 544 769 543 q 801 546 782 546 q 836 539 833 546 q 832 513 838 533 q 697 233 790 357 l 685 215 l 685 192 q 708 54 692 71 q 719 50 711 50 q 767 86 753 54 q 801 97 783 97 q 831 94 826 97 q 829 61 840 89 q 803 25 822 46 q 768 1 789 13 q 694 -15 731 -17 q 614 19 644 -11 q 594 40 604 28 q 571 88 581 61 q 568 94 568 93 q 554 85 567 94 q 356 -8 461 14 q 107 51 199 -37 q 47 163 61 99 q 103 422 18 289 q 161 494 128 461 q 393 611 265 596 m 442 547 q 299 500 368 560 q 289 492 293 496 q 221 379 243 449 q 183 239 199 318 q 218 71 158 115 q 226 65 222 68 q 292 50 253 50 q 467 100 382 50 q 543 156 510 126 q 554 165 554 164 l 547 356 q 518 485 540 442 q 496 518 511 501 q 442 547 472 542 z "},"":{"ha":786,"x_min":-18,"x_max":801,"o":"m 565 978 q 640 975 615 982 q 722 940 688 967 q 763 899 749 919 q 794 769 801 843 q 767 671 790 718 q 672 556 733 604 l 657 543 l 668 532 q 739 332 743 454 q 704 189 735 251 q 631 88 678 135 q 594 54 608 65 q 476 -12 536 10 q 204 4 322 -67 q 194 10 199 7 q 142 63 158 38 q 133 72 135 72 l 93 -93 q 50 -261 50 -258 q 15 -269 47 -269 l -10 -269 l -14 -265 q -18 -258 -18 -261 l 206 632 l 206 633 q 261 757 226 700 q 488 958 350 906 q 565 978 526 974 m 618 910 q 561 913 599 917 q 338 757 435 897 q 314 719 325 739 q 272 624 290 679 l 174 229 q 179 147 168 183 q 282 44 203 74 q 311 36 296 39 q 514 90 426 13 q 578 186 554 126 q 618 343 603 247 q 618 426 624 382 q 583 497 610 474 l 579 501 l 563 497 q 453 483 517 482 q 378 492 404 485 q 346 518 353 501 q 343 535 343 522 q 349 557 344 549 q 376 582 358 574 q 476 599 406 597 q 578 586 540 599 q 592 585 590 583 q 624 617 601 588 q 628 622 626 619 q 682 774 660 665 q 685 846 689 818 q 640 903 676 885 q 618 910 624 910 z "},"":{"ha":719,"x_min":6,"x_max":754,"o":"m 264 613 q 332 611 301 615 q 451 524 406 594 q 488 447 476 478 q 524 317 513 381 q 533 257 533 268 l 539 271 q 661 542 589 396 q 692 597 690 596 q 721 599 694 599 l 746 599 l 750 594 q 754 586 754 590 q 719 513 754 579 q 549 126 619 315 q 533 72 535 92 q 479 -201 522 -56 q 443 -285 463 -261 q 415 -300 431 -300 q 394 -290 401 -300 q 396 -183 378 -271 q 463 58 422 -64 l 472 85 l 471 126 q 465 226 471 181 q 442 344 458 297 q 326 469 411 442 q 160 451 244 497 q 89 385 111 425 q 79 363 86 382 q 72 347 75 350 q 24 346 65 343 q 14 347 15 346 q 13 375 6 353 q 76 499 31 440 q 139 557 106 535 q 264 613 196 601 z "},"":{"ha":617,"x_min":36,"x_max":632,"o":"m 385 999 q 404 1003 397 1003 q 574 964 429 1003 q 600 956 596 958 q 622 936 613 950 q 624 893 632 917 q 581 842 613 858 q 522 842 550 828 q 469 883 501 851 q 413 924 433 921 q 404 925 408 925 q 339 894 361 926 q 331 858 328 876 q 467 640 338 799 q 471 636 469 639 q 517 572 500 600 q 540 271 581 458 q 493 138 522 199 q 419 32 461 74 q 282 -35 354 -31 q 143 3 204 -37 q 43 161 64 56 q 42 242 36 199 q 143 469 54 364 q 201 525 172 501 q 281 576 235 553 q 333 599 319 596 q 339 600 336 599 l 328 626 q 265 813 276 743 q 267 885 260 858 q 304 950 275 917 q 385 999 335 985 m 376 521 l 367 540 q 319 521 358 540 q 208 385 246 476 q 161 200 172 299 q 211 51 147 92 q 281 32 240 32 q 306 33 300 32 q 365 90 339 46 q 422 272 406 160 q 421 379 428 331 q 376 521 411 442 z "},"":{"ha":564,"x_min":44,"x_max":546,"o":"m 397 597 l 456 599 l 457 599 q 517 596 511 599 q 532 549 546 583 q 510 526 525 533 l 501 522 l 443 521 q 347 513 371 519 q 265 463 299 499 q 233 417 246 443 q 218 376 218 378 q 338 375 218 375 l 457 375 l 464 371 q 474 321 492 354 q 454 301 468 310 l 447 299 l 322 297 l 197 297 l 196 288 q 193 140 174 194 q 293 53 214 69 q 358 53 325 47 q 451 94 404 64 q 471 107 468 104 q 479 104 474 107 q 492 81 485 103 q 496 49 500 54 q 460 25 492 42 q 281 -12 372 -25 q 82 115 143 3 q 50 214 57 160 q 53 307 44 260 q 82 396 63 360 q 271 565 139 510 q 307 579 289 574 q 397 597 353 594 z "},"":{"ha":690,"x_min":21,"x_max":718,"o":"m 164 613 q 221 611 189 615 q 324 525 300 593 l 326 517 l 342 531 q 390 571 368 557 q 543 614 460 615 q 664 569 622 610 q 701 415 718 517 q 618 76 699 399 q 532 -257 538 -246 q 472 -300 515 -294 q 447 -299 458 -301 q 410 -254 413 -287 q 490 82 410 -244 q 575 421 571 392 q 574 510 586 478 q 519 549 563 549 q 322 414 403 549 l 314 399 l 268 218 q 218 28 225 40 q 153 -15 199 -14 q 114 -3 131 -15 q 101 13 107 0 q 100 54 94 26 q 149 254 107 86 q 204 478 203 469 q 178 549 214 546 q 169 549 174 549 q 96 413 128 540 q 90 394 90 396 q 57 386 75 386 l 31 386 l 26 390 q 26 419 21 396 q 92 565 53 517 q 164 613 122 603 z "},"":{"ha":651,"x_min":39,"x_max":647,"o":"m 447 978 q 501 975 472 982 q 632 815 596 951 q 647 672 647 756 q 626 506 646 593 q 465 144 578 292 q 261 -11 368 14 q 193 -12 232 -18 q 117 32 147 0 q 44 217 61 89 q 44 342 39 269 q 44 349 44 346 q 194 776 71 590 q 288 890 240 844 q 447 978 365 965 m 472 911 q 363 856 418 926 q 240 574 293 769 q 235 553 238 564 q 226 524 226 525 q 354 521 226 521 l 483 521 l 492 558 q 524 724 517 672 q 524 828 529 781 q 472 911 511 901 m 463 442 q 335 443 463 443 l 207 443 l 206 438 q 174 290 186 368 q 168 128 157 185 q 246 51 182 40 q 358 153 299 60 q 435 340 401 224 q 463 442 463 438 z "},"":{"ha":492,"x_min":63,"x_max":468,"o":"m 249 613 q 288 610 269 618 q 315 583 308 603 q 307 513 321 567 q 306 507 307 510 q 204 165 257 310 q 182 75 181 104 q 200 50 183 51 q 228 53 208 50 q 350 117 294 61 q 397 192 385 153 q 411 211 403 210 q 435 213 415 213 q 465 210 461 213 q 468 199 468 207 q 425 106 468 168 q 374 53 399 74 q 261 -6 322 10 q 194 -14 226 -14 q 154 -11 167 -14 q 124 1 133 -4 q 94 22 104 11 q 75 49 82 35 q 63 103 63 72 q 78 175 63 133 q 179 515 122 293 q 197 572 193 563 q 249 613 211 603 z "},"":{"ha":800,"x_min":60,"x_max":781,"o":"m 249 613 q 288 610 269 618 q 315 583 308 603 q 308 513 321 567 q 297 469 304 499 q 276 385 276 383 q 325 411 279 382 q 399 465 350 428 q 536 567 501 550 q 544 571 540 568 q 636 599 594 597 q 679 590 664 599 q 708 521 719 571 q 697 493 704 507 q 617 440 674 444 q 549 483 561 439 q 547 501 547 492 l 547 510 l 538 504 q 404 406 500 485 q 365 375 371 379 l 350 364 l 371 361 q 568 282 522 344 q 589 242 581 268 q 588 165 599 207 q 578 106 581 142 q 608 50 576 50 q 619 51 614 50 q 651 69 635 53 q 706 190 682 100 q 718 211 710 210 q 743 213 722 213 q 772 210 769 213 q 772 176 781 204 q 726 69 753 111 q 606 -15 675 -11 q 482 39 528 -19 q 460 88 468 58 q 460 169 450 122 q 450 242 469 217 q 271 301 413 290 l 256 301 l 222 171 q 178 15 188 29 q 171 8 175 14 q 96 -11 138 -25 q 79 -3 86 -8 q 67 13 72 0 q 64 49 60 26 q 126 303 68 72 q 197 572 193 565 q 249 613 211 603 z "},"":{"ha":810,"x_min":53,"x_max":783,"o":"m 246 961 q 342 958 268 969 q 411 935 383 953 q 444 900 433 922 q 594 486 453 882 q 746 67 739 81 q 774 10 761 22 q 775 -11 783 -3 l 771 -15 l 717 -15 l 661 -15 l 651 -10 q 614 26 626 1 q 549 206 610 35 l 488 374 q 329 192 486 374 q 163 1 181 19 q 103 -18 133 -25 q 64 11 76 -12 q 67 65 53 35 q 86 89 72 76 l 279 274 q 461 450 461 447 q 392 643 460 451 l 317 849 q 272 894 297 886 q 253 899 269 894 l 236 901 l 235 901 q 221 931 218 911 q 246 961 226 954 z "},"":{"ha":838,"x_min":26,"x_max":817,"o":"m 285 613 q 324 610 306 618 q 351 583 344 603 q 343 511 357 568 q 313 388 336 481 l 268 204 q 265 156 265 188 q 275 96 265 115 q 376 51 301 40 q 468 103 422 60 q 510 157 503 140 q 561 354 514 165 q 614 557 608 549 q 681 599 636 597 q 718 586 703 599 q 731 571 725 583 q 732 528 738 556 q 685 336 725 496 q 632 119 635 136 q 633 69 626 89 q 665 50 642 47 q 700 76 682 51 q 740 185 719 106 q 753 211 746 208 q 779 213 757 213 q 808 210 806 213 q 808 178 817 204 q 715 7 772 49 q 671 -14 693 -10 q 608 -10 642 -18 q 519 56 546 4 l 515 65 l 506 56 q 383 -11 451 4 q 340 -14 371 -14 q 299 -12 307 -14 q 225 8 258 -6 l 218 13 l 186 -118 q 149 -257 153 -249 q 85 -300 129 -296 q 64 -299 74 -301 q 26 -254 29 -287 q 126 158 26 -242 q 233 572 229 564 q 285 613 247 603 z "},"":{"ha":608,"x_min":25,"x_max":615,"o":"m 415 985 q 449 971 439 989 q 449 938 453 960 q 440 874 440 900 l 440 858 l 447 858 q 572 854 540 861 q 611 828 604 846 q 615 808 615 819 q 558 751 613 764 q 493 744 535 746 q 449 746 458 744 q 410 764 425 750 l 401 771 l 389 761 q 296 628 322 713 q 299 483 268 542 q 301 478 300 481 l 307 468 l 319 472 q 397 482 353 481 q 508 463 481 483 q 517 450 511 461 q 521 431 521 442 q 464 374 518 386 q 385 368 443 368 q 289 378 328 368 l 274 383 l 263 376 q 144 224 178 319 q 136 178 136 194 q 157 121 136 146 q 210 79 175 96 l 343 26 l 479 -26 q 536 -96 522 -47 q 535 -158 543 -128 q 489 -239 525 -203 q 324 -278 429 -299 q 228 -246 276 -269 q 211 -224 210 -236 q 233 -190 211 -200 q 272 -194 251 -185 q 364 -218 313 -214 q 417 -207 403 -221 q 426 -167 433 -189 q 406 -144 424 -154 q 279 -94 400 -140 q 146 -42 161 -49 q 47 53 76 -6 q 31 103 35 82 q 33 175 25 139 q 93 307 51 246 q 193 411 131 363 l 206 419 l 190 435 q 139 533 149 476 q 142 607 133 568 q 293 803 168 731 q 326 821 310 813 l 358 836 l 360 836 q 372 843 372 840 l 374 907 q 393 972 381 960 q 415 985 400 982 z "},"":{"ha":792,"x_min":18,"x_max":804,"o":"m 226 596 q 503 599 235 599 l 768 599 l 775 594 q 796 575 790 586 q 800 540 804 558 q 747 485 789 496 q 656 483 740 483 l 571 483 l 569 471 q 557 392 561 432 q 556 254 551 331 q 557 244 557 249 q 594 100 567 167 q 607 60 607 71 q 565 -6 607 18 q 538 -15 551 -12 q 490 0 508 -19 q 461 74 471 22 q 496 469 432 203 l 500 483 l 438 483 l 376 483 l 376 479 l 318 251 q 253 31 269 65 q 217 -7 238 3 q 179 -15 200 -15 q 135 11 149 -14 q 129 32 131 18 q 131 50 129 46 l 150 93 q 306 481 249 299 q 263 483 306 483 q 190 478 214 483 q 92 410 131 463 q 81 396 82 396 q 54 394 78 394 q 19 404 25 394 q 21 415 18 410 q 38 442 24 419 q 226 596 129 579 z "},"":{"ha":718,"x_min":26,"x_max":714,"o":"m 482 613 q 546 610 500 618 q 646 558 604 597 q 685 507 671 536 q 714 383 714 450 q 653 176 714 278 q 553 63 615 113 q 361 -15 461 -12 q 326 -12 343 -15 q 238 33 275 -4 l 226 46 l 190 -101 q 149 -257 151 -251 q 85 -300 129 -296 q 64 -299 74 -301 q 26 -254 29 -287 q 96 38 26 -246 q 172 335 167 317 q 250 476 196 406 q 308 535 276 508 q 468 611 388 600 q 482 613 474 613 m 514 546 q 449 540 482 553 q 318 396 361 507 q 275 240 308 367 q 253 138 251 142 q 267 103 257 118 q 304 65 276 83 q 376 51 333 47 q 472 104 428 57 q 543 250 514 146 q 561 318 551 278 q 582 439 581 396 q 565 513 583 485 q 514 546 547 539 z "},"":{"ha":793,"x_min":33,"x_max":807,"o":"m 365 596 q 574 599 378 599 l 768 599 l 776 594 q 797 574 790 588 q 793 522 807 550 q 763 492 782 501 q 693 483 747 483 q 663 483 685 483 q 585 482 585 483 l 588 476 q 603 428 599 456 q 593 258 621 346 q 438 47 554 128 q 349 1 394 17 q 193 -8 264 -26 q 47 131 81 21 q 39 169 42 149 q 39 250 33 199 q 78 369 47 306 q 121 440 94 403 q 268 565 182 522 q 365 596 317 589 m 414 481 l 356 482 q 242 429 285 474 q 174 281 199 382 q 154 164 154 207 q 157 129 154 139 q 229 54 169 69 q 293 53 254 47 q 389 107 349 65 q 465 260 439 160 q 468 271 467 265 q 488 386 488 342 q 478 438 488 419 q 414 481 461 469 z "},"":{"ha":607,"x_min":18,"x_max":726,"o":"m 226 596 q 464 599 235 599 l 690 599 l 697 594 q 718 574 713 588 q 722 540 726 557 q 674 486 711 499 q 543 483 663 483 l 419 483 l 382 292 q 328 25 333 35 q 263 -18 308 -15 q 256 -18 260 -18 q 233 -12 239 -17 q 211 7 218 -6 q 208 50 201 25 l 342 481 q 281 483 342 483 q 181 475 207 483 q 92 408 125 458 q 81 396 83 397 q 54 394 78 394 q 19 404 25 394 q 31 431 18 411 q 156 567 90 526 q 226 596 192 592 z "},"":{"ha":869,"x_min":25,"x_max":843,"o":"m 181 613 q 251 610 210 617 q 357 564 319 600 q 394 507 372 550 q 469 294 433 429 q 479 263 479 264 q 632 426 481 263 q 792 594 782 589 q 833 586 818 608 q 835 554 843 572 q 665 367 831 544 q 499 185 499 188 q 540 32 496 175 q 547 11 544 19 q 624 -161 579 -89 q 686 -219 658 -219 q 717 -203 701 -219 q 740 -162 732 -187 q 747 -147 744 -150 q 778 -146 750 -146 q 808 -149 804 -146 q 807 -174 814 -156 q 764 -242 793 -214 q 700 -281 736 -269 q 603 -278 660 -290 q 497 -221 533 -265 q 444 -108 476 -193 q 393 53 419 -47 l 389 68 l 236 -97 q 75 -265 83 -261 q 33 -256 47 -278 q 35 -222 25 -240 q 204 -36 36 -217 l 371 143 l 363 172 q 274 438 319 342 q 214 532 239 508 q 181 549 197 549 q 156 536 165 547 q 128 492 138 519 q 114 476 124 478 q 90 475 110 475 q 61 478 64 475 q 68 522 53 486 q 142 599 94 574 q 181 613 158 607 z "},"":{"ha":904,"x_min":19,"x_max":888,"o":"m 626 960 l 631 964 l 656 964 q 690 956 688 964 q 581 503 692 950 q 467 53 465 53 q 479 50 467 50 q 665 147 576 58 q 744 253 714 194 q 783 350 769 294 q 782 410 789 383 q 733 481 772 447 q 718 500 724 489 q 713 521 713 511 q 721 558 713 542 q 788 613 742 603 q 811 614 800 615 q 871 560 853 607 q 868 414 888 508 q 840 306 854 347 q 656 57 788 154 q 461 -15 557 -15 l 450 -15 l 418 -144 q 385 -276 385 -275 q 350 -285 382 -285 l 325 -285 l 321 -281 q 317 -274 317 -276 q 349 -142 317 -267 q 379 -12 381 -12 q 374 -11 378 -11 q 313 -1 358 -11 q 193 60 235 19 q 158 107 171 82 q 149 251 128 169 q 204 417 164 310 q 225 475 224 465 q 229 540 242 522 q 207 549 224 549 q 108 449 149 543 q 96 413 101 432 q 90 394 90 396 q 57 386 75 386 l 31 386 l 26 390 q 28 419 19 396 q 53 483 39 457 q 189 610 107 586 q 225 613 201 613 q 261 610 250 613 q 353 513 343 588 q 354 490 354 501 q 332 410 353 469 q 271 218 276 261 q 286 118 263 156 q 349 68 310 86 q 396 56 386 56 q 511 506 399 56 q 626 960 622 956 z "},"":{"ha":386,"x_min":347,"x_max":925,"o":"m 635 922 l 711 922 q 899 843 844 911 q 910 825 906 835 q 919 765 925 793 q 910 749 915 750 l 857 749 q 850 768 849 753 q 840 796 850 785 q 750 838 813 824 q 581 840 669 854 q 451 797 499 829 q 418 761 426 781 q 404 747 414 749 q 383 747 399 747 q 350 756 353 747 q 356 785 347 761 q 400 839 371 815 q 611 921 481 907 q 635 922 624 922 z "}}}
